%TF.GenerationSoftware,KiCad,Pcbnew,(5.1.5)-3*%
%TF.CreationDate,2020-03-30T01:43:14+08:00*%
%TF.ProjectId,arduino_wifi,61726475-696e-46f5-9f77-6966692e6b69,REV_1.0*%
%TF.SameCoordinates,Original*%
%TF.FileFunction,Soldermask,Bot*%
%TF.FilePolarity,Negative*%
%FSLAX46Y46*%
G04 Gerber Fmt 4.6, Leading zero omitted, Abs format (unit mm)*
G04 Created by KiCad (PCBNEW (5.1.5)-3) date 2020-03-30 01:43:14*
%MOMM*%
%LPD*%
G04 APERTURE LIST*
%TA.AperFunction,Profile*%
%ADD10C,0.050000*%
%TD*%
%ADD11C,0.100000*%
G04 APERTURE END LIST*
D10*
X194669800Y-136000000D02*
G75*
G02X190669800Y-140000000I-4000000J0D01*
G01*
X190669800Y-40000000D02*
G75*
G02X194669800Y-44000000I0J-4000000D01*
G01*
X104000000Y-140000000D02*
G75*
G02X100000000Y-136000000I0J4000000D01*
G01*
X100000000Y-44000000D02*
G75*
G02X104000000Y-40000000I4000000J0D01*
G01*
X194669800Y-44000000D02*
X194669800Y-136000000D01*
X104000000Y-40000000D02*
X190669800Y-40000000D01*
X100000000Y-136000000D02*
X100000000Y-44000000D01*
X190669800Y-140000000D02*
X104000000Y-140000000D01*
D11*
G36*
X134097856Y-136432499D02*
G01*
X134211183Y-136466877D01*
X134315624Y-136522700D01*
X134407170Y-136597830D01*
X134483377Y-136690689D01*
X134491182Y-136702370D01*
X134503505Y-136714693D01*
X134517996Y-136724375D01*
X134534096Y-136731043D01*
X134551189Y-136734443D01*
X134568616Y-136734443D01*
X134585708Y-136731043D01*
X134601809Y-136724373D01*
X134616299Y-136714691D01*
X134628622Y-136702368D01*
X134638304Y-136687877D01*
X134644972Y-136671777D01*
X134648800Y-136645972D01*
X134648800Y-136423800D01*
X135851200Y-136423800D01*
X135851200Y-138076200D01*
X134648800Y-138076200D01*
X134648800Y-137854028D01*
X134647092Y-137836685D01*
X134642033Y-137820008D01*
X134633818Y-137804638D01*
X134622762Y-137791167D01*
X134609291Y-137780111D01*
X134593921Y-137771896D01*
X134577244Y-137766837D01*
X134559901Y-137765129D01*
X134542558Y-137766837D01*
X134525881Y-137771896D01*
X134510511Y-137780111D01*
X134497040Y-137791167D01*
X134485511Y-137806712D01*
X134407172Y-137902167D01*
X134315623Y-137977300D01*
X134211182Y-138033123D01*
X134097855Y-138067501D01*
X133979999Y-138079109D01*
X133862144Y-138067501D01*
X133748817Y-138033123D01*
X133644373Y-137977298D01*
X133552833Y-137902172D01*
X133477700Y-137810623D01*
X133423402Y-137709037D01*
X133413720Y-137694546D01*
X133401397Y-137682223D01*
X133386907Y-137672541D01*
X133370806Y-137665872D01*
X133353714Y-137662472D01*
X133336287Y-137662472D01*
X133319194Y-137665872D01*
X133303094Y-137672541D01*
X133288603Y-137682223D01*
X133276280Y-137694546D01*
X133266598Y-137709037D01*
X133212298Y-137810627D01*
X133137172Y-137902167D01*
X133045623Y-137977300D01*
X132941182Y-138033123D01*
X132827855Y-138067501D01*
X132709999Y-138079109D01*
X132592144Y-138067501D01*
X132478817Y-138033123D01*
X132374373Y-137977298D01*
X132282833Y-137902172D01*
X132207700Y-137810623D01*
X132151877Y-137706182D01*
X132117499Y-137592855D01*
X132108800Y-137504534D01*
X132108800Y-136995465D01*
X132117499Y-136907144D01*
X132151877Y-136793817D01*
X132207702Y-136689373D01*
X132282828Y-136597833D01*
X132374377Y-136522700D01*
X132478818Y-136466877D01*
X132592145Y-136432499D01*
X132710001Y-136420891D01*
X132827856Y-136432499D01*
X132941183Y-136466877D01*
X133045624Y-136522700D01*
X133137170Y-136597830D01*
X133212300Y-136689376D01*
X133266598Y-136790963D01*
X133276280Y-136805453D01*
X133288603Y-136817776D01*
X133303093Y-136827459D01*
X133319193Y-136834128D01*
X133336286Y-136837528D01*
X133353713Y-136837528D01*
X133370805Y-136834128D01*
X133386906Y-136827459D01*
X133401396Y-136817777D01*
X133413719Y-136805454D01*
X133423402Y-136790963D01*
X133477702Y-136689373D01*
X133552828Y-136597833D01*
X133644377Y-136522700D01*
X133748818Y-136466877D01*
X133862145Y-136432499D01*
X133980001Y-136420891D01*
X134097856Y-136432499D01*
G37*
G36*
X114070164Y-133949393D02*
G01*
X114238719Y-134019211D01*
X114390420Y-134120575D01*
X114519425Y-134249580D01*
X114620789Y-134401281D01*
X114690607Y-134569836D01*
X114726200Y-134748777D01*
X114726200Y-134931223D01*
X114690607Y-135110164D01*
X114620789Y-135278719D01*
X114519425Y-135430420D01*
X114390420Y-135559425D01*
X114238719Y-135660789D01*
X114070164Y-135730607D01*
X113891223Y-135766200D01*
X113708777Y-135766200D01*
X113529836Y-135730607D01*
X113361281Y-135660789D01*
X113209580Y-135559425D01*
X113080575Y-135430420D01*
X112979211Y-135278719D01*
X112909393Y-135110164D01*
X112873800Y-134931223D01*
X112873800Y-134748777D01*
X112909393Y-134569836D01*
X112979211Y-134401281D01*
X113080575Y-134249580D01*
X113209580Y-134120575D01*
X113361281Y-134019211D01*
X113529836Y-133949393D01*
X113708777Y-133913800D01*
X113891223Y-133913800D01*
X114070164Y-133949393D01*
G37*
G36*
X176190164Y-133949393D02*
G01*
X176358719Y-134019211D01*
X176510420Y-134120575D01*
X176639425Y-134249580D01*
X176740789Y-134401281D01*
X176810607Y-134569836D01*
X176846200Y-134748777D01*
X176846200Y-134931223D01*
X176810607Y-135110164D01*
X176740789Y-135278719D01*
X176639425Y-135430420D01*
X176510420Y-135559425D01*
X176358719Y-135660789D01*
X176190164Y-135730607D01*
X176011223Y-135766200D01*
X175828777Y-135766200D01*
X175649836Y-135730607D01*
X175481281Y-135660789D01*
X175329580Y-135559425D01*
X175200575Y-135430420D01*
X175099211Y-135278719D01*
X175029393Y-135110164D01*
X174993800Y-134931223D01*
X174993800Y-134748777D01*
X175029393Y-134569836D01*
X175099211Y-134401281D01*
X175200575Y-134249580D01*
X175329580Y-134120575D01*
X175481281Y-134019211D01*
X175649836Y-133949393D01*
X175828777Y-133913800D01*
X176011223Y-133913800D01*
X176190164Y-133949393D01*
G37*
G36*
X116610164Y-133949393D02*
G01*
X116778719Y-134019211D01*
X116930420Y-134120575D01*
X117059425Y-134249580D01*
X117160789Y-134401281D01*
X117230607Y-134569836D01*
X117266200Y-134748777D01*
X117266200Y-134931223D01*
X117230607Y-135110164D01*
X117160789Y-135278719D01*
X117059425Y-135430420D01*
X116930420Y-135559425D01*
X116778719Y-135660789D01*
X116610164Y-135730607D01*
X116431223Y-135766200D01*
X116248777Y-135766200D01*
X116069836Y-135730607D01*
X115901281Y-135660789D01*
X115749580Y-135559425D01*
X115620575Y-135430420D01*
X115519211Y-135278719D01*
X115449393Y-135110164D01*
X115413800Y-134931223D01*
X115413800Y-134748777D01*
X115449393Y-134569836D01*
X115519211Y-134401281D01*
X115620575Y-134249580D01*
X115749580Y-134120575D01*
X115901281Y-134019211D01*
X116069836Y-133949393D01*
X116248777Y-133913800D01*
X116431223Y-133913800D01*
X116610164Y-133949393D01*
G37*
G36*
X185270164Y-133949393D02*
G01*
X185438719Y-134019211D01*
X185590420Y-134120575D01*
X185719425Y-134249580D01*
X185820789Y-134401281D01*
X185890607Y-134569836D01*
X185926200Y-134748777D01*
X185926200Y-134931223D01*
X185890607Y-135110164D01*
X185820789Y-135278719D01*
X185719425Y-135430420D01*
X185590420Y-135559425D01*
X185438719Y-135660789D01*
X185270164Y-135730607D01*
X185091223Y-135766200D01*
X184908777Y-135766200D01*
X184729836Y-135730607D01*
X184561281Y-135660789D01*
X184409580Y-135559425D01*
X184280575Y-135430420D01*
X184179211Y-135278719D01*
X184109393Y-135110164D01*
X184073800Y-134931223D01*
X184073800Y-134748777D01*
X184109393Y-134569836D01*
X184179211Y-134401281D01*
X184280575Y-134249580D01*
X184409580Y-134120575D01*
X184561281Y-134019211D01*
X184729836Y-133949393D01*
X184908777Y-133913800D01*
X185091223Y-133913800D01*
X185270164Y-133949393D01*
G37*
G36*
X119150164Y-133949393D02*
G01*
X119318719Y-134019211D01*
X119470420Y-134120575D01*
X119599425Y-134249580D01*
X119700789Y-134401281D01*
X119770607Y-134569836D01*
X119806200Y-134748777D01*
X119806200Y-134931223D01*
X119770607Y-135110164D01*
X119700789Y-135278719D01*
X119599425Y-135430420D01*
X119470420Y-135559425D01*
X119318719Y-135660789D01*
X119150164Y-135730607D01*
X118971223Y-135766200D01*
X118788777Y-135766200D01*
X118609836Y-135730607D01*
X118441281Y-135660789D01*
X118289580Y-135559425D01*
X118160575Y-135430420D01*
X118059211Y-135278719D01*
X117989393Y-135110164D01*
X117953800Y-134931223D01*
X117953800Y-134748777D01*
X117989393Y-134569836D01*
X118059211Y-134401281D01*
X118160575Y-134249580D01*
X118289580Y-134120575D01*
X118441281Y-134019211D01*
X118609836Y-133949393D01*
X118788777Y-133913800D01*
X118971223Y-133913800D01*
X119150164Y-133949393D01*
G37*
G36*
X181270164Y-133949393D02*
G01*
X181438719Y-134019211D01*
X181590420Y-134120575D01*
X181719425Y-134249580D01*
X181820789Y-134401281D01*
X181890607Y-134569836D01*
X181926200Y-134748777D01*
X181926200Y-134931223D01*
X181890607Y-135110164D01*
X181820789Y-135278719D01*
X181719425Y-135430420D01*
X181590420Y-135559425D01*
X181438719Y-135660789D01*
X181270164Y-135730607D01*
X181091223Y-135766200D01*
X180908777Y-135766200D01*
X180729836Y-135730607D01*
X180561281Y-135660789D01*
X180409580Y-135559425D01*
X180280575Y-135430420D01*
X180179211Y-135278719D01*
X180109393Y-135110164D01*
X180073800Y-134931223D01*
X180073800Y-134748777D01*
X180109393Y-134569836D01*
X180179211Y-134401281D01*
X180280575Y-134249580D01*
X180409580Y-134120575D01*
X180561281Y-134019211D01*
X180729836Y-133949393D01*
X180908777Y-133913800D01*
X181091223Y-133913800D01*
X181270164Y-133949393D01*
G37*
G36*
X110070164Y-133949393D02*
G01*
X110238719Y-134019211D01*
X110390420Y-134120575D01*
X110519425Y-134249580D01*
X110620789Y-134401281D01*
X110690607Y-134569836D01*
X110726200Y-134748777D01*
X110726200Y-134931223D01*
X110690607Y-135110164D01*
X110620789Y-135278719D01*
X110519425Y-135430420D01*
X110390420Y-135559425D01*
X110238719Y-135660789D01*
X110070164Y-135730607D01*
X109891223Y-135766200D01*
X109708777Y-135766200D01*
X109529836Y-135730607D01*
X109361281Y-135660789D01*
X109209580Y-135559425D01*
X109080575Y-135430420D01*
X108979211Y-135278719D01*
X108909393Y-135110164D01*
X108873800Y-134931223D01*
X108873800Y-134748777D01*
X108909393Y-134569836D01*
X108979211Y-134401281D01*
X109080575Y-134249580D01*
X109209580Y-134120575D01*
X109361281Y-134019211D01*
X109529836Y-133949393D01*
X109708777Y-133913800D01*
X109891223Y-133913800D01*
X110070164Y-133949393D01*
G37*
G36*
X178730164Y-133949393D02*
G01*
X178898719Y-134019211D01*
X179050420Y-134120575D01*
X179179425Y-134249580D01*
X179280789Y-134401281D01*
X179350607Y-134569836D01*
X179386200Y-134748777D01*
X179386200Y-134931223D01*
X179350607Y-135110164D01*
X179280789Y-135278719D01*
X179179425Y-135430420D01*
X179050420Y-135559425D01*
X178898719Y-135660789D01*
X178730164Y-135730607D01*
X178551223Y-135766200D01*
X178368777Y-135766200D01*
X178189836Y-135730607D01*
X178021281Y-135660789D01*
X177869580Y-135559425D01*
X177740575Y-135430420D01*
X177639211Y-135278719D01*
X177569393Y-135110164D01*
X177533800Y-134931223D01*
X177533800Y-134748777D01*
X177569393Y-134569836D01*
X177639211Y-134401281D01*
X177740575Y-134249580D01*
X177869580Y-134120575D01*
X178021281Y-134019211D01*
X178189836Y-133949393D01*
X178368777Y-133913800D01*
X178551223Y-133913800D01*
X178730164Y-133949393D01*
G37*
G36*
X189070164Y-133939393D02*
G01*
X189238719Y-134009211D01*
X189390420Y-134110575D01*
X189519425Y-134239580D01*
X189620789Y-134391281D01*
X189690607Y-134559836D01*
X189726200Y-134738777D01*
X189726200Y-134921223D01*
X189690607Y-135100164D01*
X189620789Y-135268719D01*
X189519425Y-135420420D01*
X189390420Y-135549425D01*
X189238719Y-135650789D01*
X189070164Y-135720607D01*
X188891223Y-135756200D01*
X188708777Y-135756200D01*
X188529836Y-135720607D01*
X188361281Y-135650789D01*
X188209580Y-135549425D01*
X188080575Y-135420420D01*
X187979211Y-135268719D01*
X187909393Y-135100164D01*
X187873800Y-134921223D01*
X187873800Y-134738777D01*
X187909393Y-134559836D01*
X187979211Y-134391281D01*
X188080575Y-134239580D01*
X188209580Y-134110575D01*
X188361281Y-134009211D01*
X188529836Y-133939393D01*
X188708777Y-133903800D01*
X188891223Y-133903800D01*
X189070164Y-133939393D01*
G37*
G36*
X129501200Y-134876200D02*
G01*
X127648800Y-134876200D01*
X127648800Y-133023800D01*
X129501200Y-133023800D01*
X129501200Y-134876200D01*
G37*
G36*
X185270164Y-131409393D02*
G01*
X185438719Y-131479211D01*
X185590420Y-131580575D01*
X185719425Y-131709580D01*
X185820789Y-131861281D01*
X185890607Y-132029836D01*
X185926200Y-132208777D01*
X185926200Y-132391223D01*
X185890607Y-132570164D01*
X185820789Y-132738719D01*
X185719425Y-132890420D01*
X185590420Y-133019425D01*
X185438719Y-133120789D01*
X185270164Y-133190607D01*
X185091223Y-133226200D01*
X184908777Y-133226200D01*
X184729836Y-133190607D01*
X184561281Y-133120789D01*
X184409580Y-133019425D01*
X184280575Y-132890420D01*
X184179211Y-132738719D01*
X184109393Y-132570164D01*
X184073800Y-132391223D01*
X184073800Y-132208777D01*
X184109393Y-132029836D01*
X184179211Y-131861281D01*
X184280575Y-131709580D01*
X184409580Y-131580575D01*
X184561281Y-131479211D01*
X184729836Y-131409393D01*
X184908777Y-131373800D01*
X185091223Y-131373800D01*
X185270164Y-131409393D01*
G37*
G36*
X176190164Y-131409393D02*
G01*
X176358719Y-131479211D01*
X176510420Y-131580575D01*
X176639425Y-131709580D01*
X176740789Y-131861281D01*
X176810607Y-132029836D01*
X176846200Y-132208777D01*
X176846200Y-132391223D01*
X176810607Y-132570164D01*
X176740789Y-132738719D01*
X176639425Y-132890420D01*
X176510420Y-133019425D01*
X176358719Y-133120789D01*
X176190164Y-133190607D01*
X176011223Y-133226200D01*
X175828777Y-133226200D01*
X175649836Y-133190607D01*
X175481281Y-133120789D01*
X175329580Y-133019425D01*
X175200575Y-132890420D01*
X175099211Y-132738719D01*
X175029393Y-132570164D01*
X174993800Y-132391223D01*
X174993800Y-132208777D01*
X175029393Y-132029836D01*
X175099211Y-131861281D01*
X175200575Y-131709580D01*
X175329580Y-131580575D01*
X175481281Y-131479211D01*
X175649836Y-131409393D01*
X175828777Y-131373800D01*
X176011223Y-131373800D01*
X176190164Y-131409393D01*
G37*
G36*
X116610164Y-131409393D02*
G01*
X116778719Y-131479211D01*
X116930420Y-131580575D01*
X117059425Y-131709580D01*
X117160789Y-131861281D01*
X117230607Y-132029836D01*
X117266200Y-132208777D01*
X117266200Y-132391223D01*
X117230607Y-132570164D01*
X117160789Y-132738719D01*
X117059425Y-132890420D01*
X116930420Y-133019425D01*
X116778719Y-133120789D01*
X116610164Y-133190607D01*
X116431223Y-133226200D01*
X116248777Y-133226200D01*
X116069836Y-133190607D01*
X115901281Y-133120789D01*
X115749580Y-133019425D01*
X115620575Y-132890420D01*
X115519211Y-132738719D01*
X115449393Y-132570164D01*
X115413800Y-132391223D01*
X115413800Y-132208777D01*
X115449393Y-132029836D01*
X115519211Y-131861281D01*
X115620575Y-131709580D01*
X115749580Y-131580575D01*
X115901281Y-131479211D01*
X116069836Y-131409393D01*
X116248777Y-131373800D01*
X116431223Y-131373800D01*
X116610164Y-131409393D01*
G37*
G36*
X114070164Y-131409393D02*
G01*
X114238719Y-131479211D01*
X114390420Y-131580575D01*
X114519425Y-131709580D01*
X114620789Y-131861281D01*
X114690607Y-132029836D01*
X114726200Y-132208777D01*
X114726200Y-132391223D01*
X114690607Y-132570164D01*
X114620789Y-132738719D01*
X114519425Y-132890420D01*
X114390420Y-133019425D01*
X114238719Y-133120789D01*
X114070164Y-133190607D01*
X113891223Y-133226200D01*
X113708777Y-133226200D01*
X113529836Y-133190607D01*
X113361281Y-133120789D01*
X113209580Y-133019425D01*
X113080575Y-132890420D01*
X112979211Y-132738719D01*
X112909393Y-132570164D01*
X112873800Y-132391223D01*
X112873800Y-132208777D01*
X112909393Y-132029836D01*
X112979211Y-131861281D01*
X113080575Y-131709580D01*
X113209580Y-131580575D01*
X113361281Y-131479211D01*
X113529836Y-131409393D01*
X113708777Y-131373800D01*
X113891223Y-131373800D01*
X114070164Y-131409393D01*
G37*
G36*
X119150164Y-131409393D02*
G01*
X119318719Y-131479211D01*
X119470420Y-131580575D01*
X119599425Y-131709580D01*
X119700789Y-131861281D01*
X119770607Y-132029836D01*
X119806200Y-132208777D01*
X119806200Y-132391223D01*
X119770607Y-132570164D01*
X119700789Y-132738719D01*
X119599425Y-132890420D01*
X119470420Y-133019425D01*
X119318719Y-133120789D01*
X119150164Y-133190607D01*
X118971223Y-133226200D01*
X118788777Y-133226200D01*
X118609836Y-133190607D01*
X118441281Y-133120789D01*
X118289580Y-133019425D01*
X118160575Y-132890420D01*
X118059211Y-132738719D01*
X117989393Y-132570164D01*
X117953800Y-132391223D01*
X117953800Y-132208777D01*
X117989393Y-132029836D01*
X118059211Y-131861281D01*
X118160575Y-131709580D01*
X118289580Y-131580575D01*
X118441281Y-131479211D01*
X118609836Y-131409393D01*
X118788777Y-131373800D01*
X118971223Y-131373800D01*
X119150164Y-131409393D01*
G37*
G36*
X181270164Y-131409393D02*
G01*
X181438719Y-131479211D01*
X181590420Y-131580575D01*
X181719425Y-131709580D01*
X181820789Y-131861281D01*
X181890607Y-132029836D01*
X181926200Y-132208777D01*
X181926200Y-132391223D01*
X181890607Y-132570164D01*
X181820789Y-132738719D01*
X181719425Y-132890420D01*
X181590420Y-133019425D01*
X181438719Y-133120789D01*
X181270164Y-133190607D01*
X181091223Y-133226200D01*
X180908777Y-133226200D01*
X180729836Y-133190607D01*
X180561281Y-133120789D01*
X180409580Y-133019425D01*
X180280575Y-132890420D01*
X180179211Y-132738719D01*
X180109393Y-132570164D01*
X180073800Y-132391223D01*
X180073800Y-132208777D01*
X180109393Y-132029836D01*
X180179211Y-131861281D01*
X180280575Y-131709580D01*
X180409580Y-131580575D01*
X180561281Y-131479211D01*
X180729836Y-131409393D01*
X180908777Y-131373800D01*
X181091223Y-131373800D01*
X181270164Y-131409393D01*
G37*
G36*
X110070164Y-131409393D02*
G01*
X110238719Y-131479211D01*
X110390420Y-131580575D01*
X110519425Y-131709580D01*
X110620789Y-131861281D01*
X110690607Y-132029836D01*
X110726200Y-132208777D01*
X110726200Y-132391223D01*
X110690607Y-132570164D01*
X110620789Y-132738719D01*
X110519425Y-132890420D01*
X110390420Y-133019425D01*
X110238719Y-133120789D01*
X110070164Y-133190607D01*
X109891223Y-133226200D01*
X109708777Y-133226200D01*
X109529836Y-133190607D01*
X109361281Y-133120789D01*
X109209580Y-133019425D01*
X109080575Y-132890420D01*
X108979211Y-132738719D01*
X108909393Y-132570164D01*
X108873800Y-132391223D01*
X108873800Y-132208777D01*
X108909393Y-132029836D01*
X108979211Y-131861281D01*
X109080575Y-131709580D01*
X109209580Y-131580575D01*
X109361281Y-131479211D01*
X109529836Y-131409393D01*
X109708777Y-131373800D01*
X109891223Y-131373800D01*
X110070164Y-131409393D01*
G37*
G36*
X178730164Y-131409393D02*
G01*
X178898719Y-131479211D01*
X179050420Y-131580575D01*
X179179425Y-131709580D01*
X179280789Y-131861281D01*
X179350607Y-132029836D01*
X179386200Y-132208777D01*
X179386200Y-132391223D01*
X179350607Y-132570164D01*
X179280789Y-132738719D01*
X179179425Y-132890420D01*
X179050420Y-133019425D01*
X178898719Y-133120789D01*
X178730164Y-133190607D01*
X178551223Y-133226200D01*
X178368777Y-133226200D01*
X178189836Y-133190607D01*
X178021281Y-133120789D01*
X177869580Y-133019425D01*
X177740575Y-132890420D01*
X177639211Y-132738719D01*
X177569393Y-132570164D01*
X177533800Y-132391223D01*
X177533800Y-132208777D01*
X177569393Y-132029836D01*
X177639211Y-131861281D01*
X177740575Y-131709580D01*
X177869580Y-131580575D01*
X178021281Y-131479211D01*
X178189836Y-131409393D01*
X178368777Y-131373800D01*
X178551223Y-131373800D01*
X178730164Y-131409393D01*
G37*
G36*
X189070164Y-131399393D02*
G01*
X189238719Y-131469211D01*
X189390420Y-131570575D01*
X189519425Y-131699580D01*
X189620789Y-131851281D01*
X189690607Y-132019836D01*
X189726200Y-132198777D01*
X189726200Y-132381223D01*
X189690607Y-132560164D01*
X189620789Y-132728719D01*
X189519425Y-132880420D01*
X189390420Y-133009425D01*
X189238719Y-133110789D01*
X189070164Y-133180607D01*
X188891223Y-133216200D01*
X188708777Y-133216200D01*
X188529836Y-133180607D01*
X188361281Y-133110789D01*
X188209580Y-133009425D01*
X188080575Y-132880420D01*
X187979211Y-132728719D01*
X187909393Y-132560164D01*
X187873800Y-132381223D01*
X187873800Y-132198777D01*
X187909393Y-132019836D01*
X187979211Y-131851281D01*
X188080575Y-131699580D01*
X188209580Y-131570575D01*
X188361281Y-131469211D01*
X188529836Y-131399393D01*
X188708777Y-131363800D01*
X188891223Y-131363800D01*
X189070164Y-131399393D01*
G37*
G36*
X128845164Y-130519393D02*
G01*
X129013719Y-130589211D01*
X129165420Y-130690575D01*
X129294425Y-130819580D01*
X129395789Y-130971281D01*
X129465607Y-131139836D01*
X129501200Y-131318777D01*
X129501200Y-131501223D01*
X129465607Y-131680164D01*
X129395789Y-131848719D01*
X129294425Y-132000420D01*
X129165420Y-132129425D01*
X129013719Y-132230789D01*
X128845164Y-132300607D01*
X128666223Y-132336200D01*
X128483777Y-132336200D01*
X128304836Y-132300607D01*
X128136281Y-132230789D01*
X127984580Y-132129425D01*
X127855575Y-132000420D01*
X127754211Y-131848719D01*
X127684393Y-131680164D01*
X127648800Y-131501223D01*
X127648800Y-131318777D01*
X127684393Y-131139836D01*
X127754211Y-130971281D01*
X127855575Y-130819580D01*
X127984580Y-130690575D01*
X128136281Y-130589211D01*
X128304836Y-130519393D01*
X128483777Y-130483800D01*
X128666223Y-130483800D01*
X128845164Y-130519393D01*
G37*
G36*
X134907855Y-129932499D02*
G01*
X135021182Y-129966877D01*
X135125623Y-130022700D01*
X135217172Y-130097833D01*
X135292298Y-130189373D01*
X135348123Y-130293817D01*
X135382501Y-130407144D01*
X135391200Y-130495465D01*
X135391200Y-131004534D01*
X135382501Y-131092856D01*
X135348123Y-131206183D01*
X135292300Y-131310624D01*
X135217170Y-131402170D01*
X135125624Y-131477300D01*
X135021183Y-131533123D01*
X134907856Y-131567501D01*
X134790001Y-131579109D01*
X134672145Y-131567501D01*
X134558818Y-131533123D01*
X134454377Y-131477300D01*
X134362828Y-131402167D01*
X134287702Y-131310627D01*
X134233402Y-131209037D01*
X134223720Y-131194547D01*
X134211397Y-131182224D01*
X134196907Y-131172541D01*
X134180807Y-131165872D01*
X134163714Y-131162472D01*
X134146287Y-131162472D01*
X134129195Y-131165872D01*
X134113094Y-131172541D01*
X134098604Y-131182223D01*
X134086281Y-131194546D01*
X134076598Y-131209037D01*
X134022300Y-131310624D01*
X133947170Y-131402170D01*
X133855624Y-131477300D01*
X133751183Y-131533123D01*
X133637856Y-131567501D01*
X133520001Y-131579109D01*
X133402145Y-131567501D01*
X133288818Y-131533123D01*
X133184377Y-131477300D01*
X133092828Y-131402167D01*
X133016628Y-131309318D01*
X133008818Y-131297630D01*
X132996495Y-131285307D01*
X132982004Y-131275625D01*
X132965904Y-131268957D01*
X132948811Y-131265557D01*
X132931384Y-131265557D01*
X132914292Y-131268957D01*
X132898191Y-131275627D01*
X132883701Y-131285309D01*
X132871378Y-131297632D01*
X132861696Y-131312123D01*
X132855028Y-131328223D01*
X132851200Y-131354028D01*
X132851200Y-131576200D01*
X131648800Y-131576200D01*
X131648800Y-129923800D01*
X132851200Y-129923800D01*
X132851200Y-130145973D01*
X132852908Y-130163316D01*
X132857967Y-130179993D01*
X132866182Y-130195363D01*
X132877238Y-130208834D01*
X132890709Y-130219890D01*
X132906079Y-130228105D01*
X132922756Y-130233164D01*
X132940099Y-130234872D01*
X132957442Y-130233164D01*
X132974119Y-130228105D01*
X132989489Y-130219890D01*
X133002960Y-130208834D01*
X133014480Y-130193301D01*
X133092833Y-130097828D01*
X133184373Y-130022702D01*
X133288817Y-129966877D01*
X133402144Y-129932499D01*
X133519999Y-129920891D01*
X133637855Y-129932499D01*
X133751182Y-129966877D01*
X133855623Y-130022700D01*
X133947172Y-130097833D01*
X134022298Y-130189373D01*
X134076598Y-130290963D01*
X134086280Y-130305453D01*
X134098603Y-130317776D01*
X134113093Y-130327459D01*
X134129193Y-130334128D01*
X134146286Y-130337528D01*
X134163713Y-130337528D01*
X134180805Y-130334128D01*
X134196906Y-130327459D01*
X134211396Y-130317777D01*
X134223719Y-130305454D01*
X134233402Y-130290963D01*
X134287700Y-130189377D01*
X134362833Y-130097828D01*
X134454373Y-130022702D01*
X134558817Y-129966877D01*
X134672144Y-129932499D01*
X134789999Y-129920891D01*
X134907855Y-129932499D01*
G37*
G36*
X114070164Y-128869393D02*
G01*
X114238719Y-128939211D01*
X114390420Y-129040575D01*
X114519425Y-129169580D01*
X114620789Y-129321281D01*
X114690607Y-129489836D01*
X114726200Y-129668777D01*
X114726200Y-129851223D01*
X114690607Y-130030164D01*
X114620789Y-130198719D01*
X114519425Y-130350420D01*
X114390420Y-130479425D01*
X114238719Y-130580789D01*
X114070164Y-130650607D01*
X113891223Y-130686200D01*
X113708777Y-130686200D01*
X113529836Y-130650607D01*
X113361281Y-130580789D01*
X113209580Y-130479425D01*
X113080575Y-130350420D01*
X112979211Y-130198719D01*
X112909393Y-130030164D01*
X112873800Y-129851223D01*
X112873800Y-129668777D01*
X112909393Y-129489836D01*
X112979211Y-129321281D01*
X113080575Y-129169580D01*
X113209580Y-129040575D01*
X113361281Y-128939211D01*
X113529836Y-128869393D01*
X113708777Y-128833800D01*
X113891223Y-128833800D01*
X114070164Y-128869393D01*
G37*
G36*
X178730164Y-128869393D02*
G01*
X178898719Y-128939211D01*
X179050420Y-129040575D01*
X179179425Y-129169580D01*
X179280789Y-129321281D01*
X179350607Y-129489836D01*
X179386200Y-129668777D01*
X179386200Y-129851223D01*
X179350607Y-130030164D01*
X179280789Y-130198719D01*
X179179425Y-130350420D01*
X179050420Y-130479425D01*
X178898719Y-130580789D01*
X178730164Y-130650607D01*
X178551223Y-130686200D01*
X178368777Y-130686200D01*
X178189836Y-130650607D01*
X178021281Y-130580789D01*
X177869580Y-130479425D01*
X177740575Y-130350420D01*
X177639211Y-130198719D01*
X177569393Y-130030164D01*
X177533800Y-129851223D01*
X177533800Y-129668777D01*
X177569393Y-129489836D01*
X177639211Y-129321281D01*
X177740575Y-129169580D01*
X177869580Y-129040575D01*
X178021281Y-128939211D01*
X178189836Y-128869393D01*
X178368777Y-128833800D01*
X178551223Y-128833800D01*
X178730164Y-128869393D01*
G37*
G36*
X176190164Y-128869393D02*
G01*
X176358719Y-128939211D01*
X176510420Y-129040575D01*
X176639425Y-129169580D01*
X176740789Y-129321281D01*
X176810607Y-129489836D01*
X176846200Y-129668777D01*
X176846200Y-129851223D01*
X176810607Y-130030164D01*
X176740789Y-130198719D01*
X176639425Y-130350420D01*
X176510420Y-130479425D01*
X176358719Y-130580789D01*
X176190164Y-130650607D01*
X176011223Y-130686200D01*
X175828777Y-130686200D01*
X175649836Y-130650607D01*
X175481281Y-130580789D01*
X175329580Y-130479425D01*
X175200575Y-130350420D01*
X175099211Y-130198719D01*
X175029393Y-130030164D01*
X174993800Y-129851223D01*
X174993800Y-129668777D01*
X175029393Y-129489836D01*
X175099211Y-129321281D01*
X175200575Y-129169580D01*
X175329580Y-129040575D01*
X175481281Y-128939211D01*
X175649836Y-128869393D01*
X175828777Y-128833800D01*
X176011223Y-128833800D01*
X176190164Y-128869393D01*
G37*
G36*
X116610164Y-128869393D02*
G01*
X116778719Y-128939211D01*
X116930420Y-129040575D01*
X117059425Y-129169580D01*
X117160789Y-129321281D01*
X117230607Y-129489836D01*
X117266200Y-129668777D01*
X117266200Y-129851223D01*
X117230607Y-130030164D01*
X117160789Y-130198719D01*
X117059425Y-130350420D01*
X116930420Y-130479425D01*
X116778719Y-130580789D01*
X116610164Y-130650607D01*
X116431223Y-130686200D01*
X116248777Y-130686200D01*
X116069836Y-130650607D01*
X115901281Y-130580789D01*
X115749580Y-130479425D01*
X115620575Y-130350420D01*
X115519211Y-130198719D01*
X115449393Y-130030164D01*
X115413800Y-129851223D01*
X115413800Y-129668777D01*
X115449393Y-129489836D01*
X115519211Y-129321281D01*
X115620575Y-129169580D01*
X115749580Y-129040575D01*
X115901281Y-128939211D01*
X116069836Y-128869393D01*
X116248777Y-128833800D01*
X116431223Y-128833800D01*
X116610164Y-128869393D01*
G37*
G36*
X185270164Y-128869393D02*
G01*
X185438719Y-128939211D01*
X185590420Y-129040575D01*
X185719425Y-129169580D01*
X185820789Y-129321281D01*
X185890607Y-129489836D01*
X185926200Y-129668777D01*
X185926200Y-129851223D01*
X185890607Y-130030164D01*
X185820789Y-130198719D01*
X185719425Y-130350420D01*
X185590420Y-130479425D01*
X185438719Y-130580789D01*
X185270164Y-130650607D01*
X185091223Y-130686200D01*
X184908777Y-130686200D01*
X184729836Y-130650607D01*
X184561281Y-130580789D01*
X184409580Y-130479425D01*
X184280575Y-130350420D01*
X184179211Y-130198719D01*
X184109393Y-130030164D01*
X184073800Y-129851223D01*
X184073800Y-129668777D01*
X184109393Y-129489836D01*
X184179211Y-129321281D01*
X184280575Y-129169580D01*
X184409580Y-129040575D01*
X184561281Y-128939211D01*
X184729836Y-128869393D01*
X184908777Y-128833800D01*
X185091223Y-128833800D01*
X185270164Y-128869393D01*
G37*
G36*
X119150164Y-128869393D02*
G01*
X119318719Y-128939211D01*
X119470420Y-129040575D01*
X119599425Y-129169580D01*
X119700789Y-129321281D01*
X119770607Y-129489836D01*
X119806200Y-129668777D01*
X119806200Y-129851223D01*
X119770607Y-130030164D01*
X119700789Y-130198719D01*
X119599425Y-130350420D01*
X119470420Y-130479425D01*
X119318719Y-130580789D01*
X119150164Y-130650607D01*
X118971223Y-130686200D01*
X118788777Y-130686200D01*
X118609836Y-130650607D01*
X118441281Y-130580789D01*
X118289580Y-130479425D01*
X118160575Y-130350420D01*
X118059211Y-130198719D01*
X117989393Y-130030164D01*
X117953800Y-129851223D01*
X117953800Y-129668777D01*
X117989393Y-129489836D01*
X118059211Y-129321281D01*
X118160575Y-129169580D01*
X118289580Y-129040575D01*
X118441281Y-128939211D01*
X118609836Y-128869393D01*
X118788777Y-128833800D01*
X118971223Y-128833800D01*
X119150164Y-128869393D01*
G37*
G36*
X110070164Y-128869393D02*
G01*
X110238719Y-128939211D01*
X110390420Y-129040575D01*
X110519425Y-129169580D01*
X110620789Y-129321281D01*
X110690607Y-129489836D01*
X110726200Y-129668777D01*
X110726200Y-129851223D01*
X110690607Y-130030164D01*
X110620789Y-130198719D01*
X110519425Y-130350420D01*
X110390420Y-130479425D01*
X110238719Y-130580789D01*
X110070164Y-130650607D01*
X109891223Y-130686200D01*
X109708777Y-130686200D01*
X109529836Y-130650607D01*
X109361281Y-130580789D01*
X109209580Y-130479425D01*
X109080575Y-130350420D01*
X108979211Y-130198719D01*
X108909393Y-130030164D01*
X108873800Y-129851223D01*
X108873800Y-129668777D01*
X108909393Y-129489836D01*
X108979211Y-129321281D01*
X109080575Y-129169580D01*
X109209580Y-129040575D01*
X109361281Y-128939211D01*
X109529836Y-128869393D01*
X109708777Y-128833800D01*
X109891223Y-128833800D01*
X110070164Y-128869393D01*
G37*
G36*
X181270164Y-128869393D02*
G01*
X181438719Y-128939211D01*
X181590420Y-129040575D01*
X181719425Y-129169580D01*
X181820789Y-129321281D01*
X181890607Y-129489836D01*
X181926200Y-129668777D01*
X181926200Y-129851223D01*
X181890607Y-130030164D01*
X181820789Y-130198719D01*
X181719425Y-130350420D01*
X181590420Y-130479425D01*
X181438719Y-130580789D01*
X181270164Y-130650607D01*
X181091223Y-130686200D01*
X180908777Y-130686200D01*
X180729836Y-130650607D01*
X180561281Y-130580789D01*
X180409580Y-130479425D01*
X180280575Y-130350420D01*
X180179211Y-130198719D01*
X180109393Y-130030164D01*
X180073800Y-129851223D01*
X180073800Y-129668777D01*
X180109393Y-129489836D01*
X180179211Y-129321281D01*
X180280575Y-129169580D01*
X180409580Y-129040575D01*
X180561281Y-128939211D01*
X180729836Y-128869393D01*
X180908777Y-128833800D01*
X181091223Y-128833800D01*
X181270164Y-128869393D01*
G37*
G36*
X189070164Y-128859393D02*
G01*
X189238719Y-128929211D01*
X189390420Y-129030575D01*
X189519425Y-129159580D01*
X189620789Y-129311281D01*
X189690607Y-129479836D01*
X189726200Y-129658777D01*
X189726200Y-129841223D01*
X189690607Y-130020164D01*
X189620789Y-130188719D01*
X189519425Y-130340420D01*
X189390420Y-130469425D01*
X189238719Y-130570789D01*
X189070164Y-130640607D01*
X188891223Y-130676200D01*
X188708777Y-130676200D01*
X188529836Y-130640607D01*
X188361281Y-130570789D01*
X188209580Y-130469425D01*
X188080575Y-130340420D01*
X187979211Y-130188719D01*
X187909393Y-130020164D01*
X187873800Y-129841223D01*
X187873800Y-129658777D01*
X187909393Y-129479836D01*
X187979211Y-129311281D01*
X188080575Y-129159580D01*
X188209580Y-129030575D01*
X188361281Y-128929211D01*
X188529836Y-128859393D01*
X188708777Y-128823800D01*
X188891223Y-128823800D01*
X189070164Y-128859393D01*
G37*
G36*
X128845164Y-127979393D02*
G01*
X129013719Y-128049211D01*
X129165420Y-128150575D01*
X129294425Y-128279580D01*
X129395789Y-128431281D01*
X129465607Y-128599836D01*
X129501200Y-128778777D01*
X129501200Y-128961223D01*
X129465607Y-129140164D01*
X129395789Y-129308719D01*
X129294425Y-129460420D01*
X129165420Y-129589425D01*
X129013719Y-129690789D01*
X128845164Y-129760607D01*
X128666223Y-129796200D01*
X128483777Y-129796200D01*
X128304836Y-129760607D01*
X128136281Y-129690789D01*
X127984580Y-129589425D01*
X127855575Y-129460420D01*
X127754211Y-129308719D01*
X127684393Y-129140164D01*
X127648800Y-128961223D01*
X127648800Y-128778777D01*
X127684393Y-128599836D01*
X127754211Y-128431281D01*
X127855575Y-128279580D01*
X127984580Y-128150575D01*
X128136281Y-128049211D01*
X128304836Y-127979393D01*
X128483777Y-127943800D01*
X128666223Y-127943800D01*
X128845164Y-127979393D01*
G37*
G36*
X178730164Y-126329393D02*
G01*
X178898719Y-126399211D01*
X179050420Y-126500575D01*
X179179425Y-126629580D01*
X179280789Y-126781281D01*
X179350607Y-126949836D01*
X179386200Y-127128777D01*
X179386200Y-127311223D01*
X179350607Y-127490164D01*
X179280789Y-127658719D01*
X179179425Y-127810420D01*
X179050420Y-127939425D01*
X178898719Y-128040789D01*
X178730164Y-128110607D01*
X178551223Y-128146200D01*
X178368777Y-128146200D01*
X178189836Y-128110607D01*
X178021281Y-128040789D01*
X177869580Y-127939425D01*
X177740575Y-127810420D01*
X177639211Y-127658719D01*
X177569393Y-127490164D01*
X177533800Y-127311223D01*
X177533800Y-127128777D01*
X177569393Y-126949836D01*
X177639211Y-126781281D01*
X177740575Y-126629580D01*
X177869580Y-126500575D01*
X178021281Y-126399211D01*
X178189836Y-126329393D01*
X178368777Y-126293800D01*
X178551223Y-126293800D01*
X178730164Y-126329393D01*
G37*
G36*
X176190164Y-126329393D02*
G01*
X176358719Y-126399211D01*
X176510420Y-126500575D01*
X176639425Y-126629580D01*
X176740789Y-126781281D01*
X176810607Y-126949836D01*
X176846200Y-127128777D01*
X176846200Y-127311223D01*
X176810607Y-127490164D01*
X176740789Y-127658719D01*
X176639425Y-127810420D01*
X176510420Y-127939425D01*
X176358719Y-128040789D01*
X176190164Y-128110607D01*
X176011223Y-128146200D01*
X175828777Y-128146200D01*
X175649836Y-128110607D01*
X175481281Y-128040789D01*
X175329580Y-127939425D01*
X175200575Y-127810420D01*
X175099211Y-127658719D01*
X175029393Y-127490164D01*
X174993800Y-127311223D01*
X174993800Y-127128777D01*
X175029393Y-126949836D01*
X175099211Y-126781281D01*
X175200575Y-126629580D01*
X175329580Y-126500575D01*
X175481281Y-126399211D01*
X175649836Y-126329393D01*
X175828777Y-126293800D01*
X176011223Y-126293800D01*
X176190164Y-126329393D01*
G37*
G36*
X116610164Y-126329393D02*
G01*
X116778719Y-126399211D01*
X116930420Y-126500575D01*
X117059425Y-126629580D01*
X117160789Y-126781281D01*
X117230607Y-126949836D01*
X117266200Y-127128777D01*
X117266200Y-127311223D01*
X117230607Y-127490164D01*
X117160789Y-127658719D01*
X117059425Y-127810420D01*
X116930420Y-127939425D01*
X116778719Y-128040789D01*
X116610164Y-128110607D01*
X116431223Y-128146200D01*
X116248777Y-128146200D01*
X116069836Y-128110607D01*
X115901281Y-128040789D01*
X115749580Y-127939425D01*
X115620575Y-127810420D01*
X115519211Y-127658719D01*
X115449393Y-127490164D01*
X115413800Y-127311223D01*
X115413800Y-127128777D01*
X115449393Y-126949836D01*
X115519211Y-126781281D01*
X115620575Y-126629580D01*
X115749580Y-126500575D01*
X115901281Y-126399211D01*
X116069836Y-126329393D01*
X116248777Y-126293800D01*
X116431223Y-126293800D01*
X116610164Y-126329393D01*
G37*
G36*
X181270164Y-126329393D02*
G01*
X181438719Y-126399211D01*
X181590420Y-126500575D01*
X181719425Y-126629580D01*
X181820789Y-126781281D01*
X181890607Y-126949836D01*
X181926200Y-127128777D01*
X181926200Y-127311223D01*
X181890607Y-127490164D01*
X181820789Y-127658719D01*
X181719425Y-127810420D01*
X181590420Y-127939425D01*
X181438719Y-128040789D01*
X181270164Y-128110607D01*
X181091223Y-128146200D01*
X180908777Y-128146200D01*
X180729836Y-128110607D01*
X180561281Y-128040789D01*
X180409580Y-127939425D01*
X180280575Y-127810420D01*
X180179211Y-127658719D01*
X180109393Y-127490164D01*
X180073800Y-127311223D01*
X180073800Y-127128777D01*
X180109393Y-126949836D01*
X180179211Y-126781281D01*
X180280575Y-126629580D01*
X180409580Y-126500575D01*
X180561281Y-126399211D01*
X180729836Y-126329393D01*
X180908777Y-126293800D01*
X181091223Y-126293800D01*
X181270164Y-126329393D01*
G37*
G36*
X110070164Y-126329393D02*
G01*
X110238719Y-126399211D01*
X110390420Y-126500575D01*
X110519425Y-126629580D01*
X110620789Y-126781281D01*
X110690607Y-126949836D01*
X110726200Y-127128777D01*
X110726200Y-127311223D01*
X110690607Y-127490164D01*
X110620789Y-127658719D01*
X110519425Y-127810420D01*
X110390420Y-127939425D01*
X110238719Y-128040789D01*
X110070164Y-128110607D01*
X109891223Y-128146200D01*
X109708777Y-128146200D01*
X109529836Y-128110607D01*
X109361281Y-128040789D01*
X109209580Y-127939425D01*
X109080575Y-127810420D01*
X108979211Y-127658719D01*
X108909393Y-127490164D01*
X108873800Y-127311223D01*
X108873800Y-127128777D01*
X108909393Y-126949836D01*
X108979211Y-126781281D01*
X109080575Y-126629580D01*
X109209580Y-126500575D01*
X109361281Y-126399211D01*
X109529836Y-126329393D01*
X109708777Y-126293800D01*
X109891223Y-126293800D01*
X110070164Y-126329393D01*
G37*
G36*
X114070164Y-126329393D02*
G01*
X114238719Y-126399211D01*
X114390420Y-126500575D01*
X114519425Y-126629580D01*
X114620789Y-126781281D01*
X114690607Y-126949836D01*
X114726200Y-127128777D01*
X114726200Y-127311223D01*
X114690607Y-127490164D01*
X114620789Y-127658719D01*
X114519425Y-127810420D01*
X114390420Y-127939425D01*
X114238719Y-128040789D01*
X114070164Y-128110607D01*
X113891223Y-128146200D01*
X113708777Y-128146200D01*
X113529836Y-128110607D01*
X113361281Y-128040789D01*
X113209580Y-127939425D01*
X113080575Y-127810420D01*
X112979211Y-127658719D01*
X112909393Y-127490164D01*
X112873800Y-127311223D01*
X112873800Y-127128777D01*
X112909393Y-126949836D01*
X112979211Y-126781281D01*
X113080575Y-126629580D01*
X113209580Y-126500575D01*
X113361281Y-126399211D01*
X113529836Y-126329393D01*
X113708777Y-126293800D01*
X113891223Y-126293800D01*
X114070164Y-126329393D01*
G37*
G36*
X119150164Y-126329393D02*
G01*
X119318719Y-126399211D01*
X119470420Y-126500575D01*
X119599425Y-126629580D01*
X119700789Y-126781281D01*
X119770607Y-126949836D01*
X119806200Y-127128777D01*
X119806200Y-127311223D01*
X119770607Y-127490164D01*
X119700789Y-127658719D01*
X119599425Y-127810420D01*
X119470420Y-127939425D01*
X119318719Y-128040789D01*
X119150164Y-128110607D01*
X118971223Y-128146200D01*
X118788777Y-128146200D01*
X118609836Y-128110607D01*
X118441281Y-128040789D01*
X118289580Y-127939425D01*
X118160575Y-127810420D01*
X118059211Y-127658719D01*
X117989393Y-127490164D01*
X117953800Y-127311223D01*
X117953800Y-127128777D01*
X117989393Y-126949836D01*
X118059211Y-126781281D01*
X118160575Y-126629580D01*
X118289580Y-126500575D01*
X118441281Y-126399211D01*
X118609836Y-126329393D01*
X118788777Y-126293800D01*
X118971223Y-126293800D01*
X119150164Y-126329393D01*
G37*
G36*
X185270164Y-126329393D02*
G01*
X185438719Y-126399211D01*
X185590420Y-126500575D01*
X185719425Y-126629580D01*
X185820789Y-126781281D01*
X185890607Y-126949836D01*
X185926200Y-127128777D01*
X185926200Y-127311223D01*
X185890607Y-127490164D01*
X185820789Y-127658719D01*
X185719425Y-127810420D01*
X185590420Y-127939425D01*
X185438719Y-128040789D01*
X185270164Y-128110607D01*
X185091223Y-128146200D01*
X184908777Y-128146200D01*
X184729836Y-128110607D01*
X184561281Y-128040789D01*
X184409580Y-127939425D01*
X184280575Y-127810420D01*
X184179211Y-127658719D01*
X184109393Y-127490164D01*
X184073800Y-127311223D01*
X184073800Y-127128777D01*
X184109393Y-126949836D01*
X184179211Y-126781281D01*
X184280575Y-126629580D01*
X184409580Y-126500575D01*
X184561281Y-126399211D01*
X184729836Y-126329393D01*
X184908777Y-126293800D01*
X185091223Y-126293800D01*
X185270164Y-126329393D01*
G37*
G36*
X189726200Y-128136200D02*
G01*
X187873800Y-128136200D01*
X187873800Y-126283800D01*
X189726200Y-126283800D01*
X189726200Y-128136200D01*
G37*
G36*
X110070164Y-123789393D02*
G01*
X110238719Y-123859211D01*
X110390420Y-123960575D01*
X110519425Y-124089580D01*
X110620789Y-124241281D01*
X110690607Y-124409836D01*
X110726200Y-124588777D01*
X110726200Y-124771223D01*
X110690607Y-124950164D01*
X110620789Y-125118719D01*
X110519425Y-125270420D01*
X110390420Y-125399425D01*
X110238719Y-125500789D01*
X110070164Y-125570607D01*
X109891223Y-125606200D01*
X109708777Y-125606200D01*
X109529836Y-125570607D01*
X109361281Y-125500789D01*
X109209580Y-125399425D01*
X109080575Y-125270420D01*
X108979211Y-125118719D01*
X108909393Y-124950164D01*
X108873800Y-124771223D01*
X108873800Y-124588777D01*
X108909393Y-124409836D01*
X108979211Y-124241281D01*
X109080575Y-124089580D01*
X109209580Y-123960575D01*
X109361281Y-123859211D01*
X109529836Y-123789393D01*
X109708777Y-123753800D01*
X109891223Y-123753800D01*
X110070164Y-123789393D01*
G37*
G36*
X185270164Y-123789393D02*
G01*
X185438719Y-123859211D01*
X185590420Y-123960575D01*
X185719425Y-124089580D01*
X185820789Y-124241281D01*
X185890607Y-124409836D01*
X185926200Y-124588777D01*
X185926200Y-124771223D01*
X185890607Y-124950164D01*
X185820789Y-125118719D01*
X185719425Y-125270420D01*
X185590420Y-125399425D01*
X185438719Y-125500789D01*
X185270164Y-125570607D01*
X185091223Y-125606200D01*
X184908777Y-125606200D01*
X184729836Y-125570607D01*
X184561281Y-125500789D01*
X184409580Y-125399425D01*
X184280575Y-125270420D01*
X184179211Y-125118719D01*
X184109393Y-124950164D01*
X184073800Y-124771223D01*
X184073800Y-124588777D01*
X184109393Y-124409836D01*
X184179211Y-124241281D01*
X184280575Y-124089580D01*
X184409580Y-123960575D01*
X184561281Y-123859211D01*
X184729836Y-123789393D01*
X184908777Y-123753800D01*
X185091223Y-123753800D01*
X185270164Y-123789393D01*
G37*
G36*
X176190164Y-123789393D02*
G01*
X176358719Y-123859211D01*
X176510420Y-123960575D01*
X176639425Y-124089580D01*
X176740789Y-124241281D01*
X176810607Y-124409836D01*
X176846200Y-124588777D01*
X176846200Y-124771223D01*
X176810607Y-124950164D01*
X176740789Y-125118719D01*
X176639425Y-125270420D01*
X176510420Y-125399425D01*
X176358719Y-125500789D01*
X176190164Y-125570607D01*
X176011223Y-125606200D01*
X175828777Y-125606200D01*
X175649836Y-125570607D01*
X175481281Y-125500789D01*
X175329580Y-125399425D01*
X175200575Y-125270420D01*
X175099211Y-125118719D01*
X175029393Y-124950164D01*
X174993800Y-124771223D01*
X174993800Y-124588777D01*
X175029393Y-124409836D01*
X175099211Y-124241281D01*
X175200575Y-124089580D01*
X175329580Y-123960575D01*
X175481281Y-123859211D01*
X175649836Y-123789393D01*
X175828777Y-123753800D01*
X176011223Y-123753800D01*
X176190164Y-123789393D01*
G37*
G36*
X178730164Y-123789393D02*
G01*
X178898719Y-123859211D01*
X179050420Y-123960575D01*
X179179425Y-124089580D01*
X179280789Y-124241281D01*
X179350607Y-124409836D01*
X179386200Y-124588777D01*
X179386200Y-124771223D01*
X179350607Y-124950164D01*
X179280789Y-125118719D01*
X179179425Y-125270420D01*
X179050420Y-125399425D01*
X178898719Y-125500789D01*
X178730164Y-125570607D01*
X178551223Y-125606200D01*
X178368777Y-125606200D01*
X178189836Y-125570607D01*
X178021281Y-125500789D01*
X177869580Y-125399425D01*
X177740575Y-125270420D01*
X177639211Y-125118719D01*
X177569393Y-124950164D01*
X177533800Y-124771223D01*
X177533800Y-124588777D01*
X177569393Y-124409836D01*
X177639211Y-124241281D01*
X177740575Y-124089580D01*
X177869580Y-123960575D01*
X178021281Y-123859211D01*
X178189836Y-123789393D01*
X178368777Y-123753800D01*
X178551223Y-123753800D01*
X178730164Y-123789393D01*
G37*
G36*
X119150164Y-123789393D02*
G01*
X119318719Y-123859211D01*
X119470420Y-123960575D01*
X119599425Y-124089580D01*
X119700789Y-124241281D01*
X119770607Y-124409836D01*
X119806200Y-124588777D01*
X119806200Y-124771223D01*
X119770607Y-124950164D01*
X119700789Y-125118719D01*
X119599425Y-125270420D01*
X119470420Y-125399425D01*
X119318719Y-125500789D01*
X119150164Y-125570607D01*
X118971223Y-125606200D01*
X118788777Y-125606200D01*
X118609836Y-125570607D01*
X118441281Y-125500789D01*
X118289580Y-125399425D01*
X118160575Y-125270420D01*
X118059211Y-125118719D01*
X117989393Y-124950164D01*
X117953800Y-124771223D01*
X117953800Y-124588777D01*
X117989393Y-124409836D01*
X118059211Y-124241281D01*
X118160575Y-124089580D01*
X118289580Y-123960575D01*
X118441281Y-123859211D01*
X118609836Y-123789393D01*
X118788777Y-123753800D01*
X118971223Y-123753800D01*
X119150164Y-123789393D01*
G37*
G36*
X114070164Y-123789393D02*
G01*
X114238719Y-123859211D01*
X114390420Y-123960575D01*
X114519425Y-124089580D01*
X114620789Y-124241281D01*
X114690607Y-124409836D01*
X114726200Y-124588777D01*
X114726200Y-124771223D01*
X114690607Y-124950164D01*
X114620789Y-125118719D01*
X114519425Y-125270420D01*
X114390420Y-125399425D01*
X114238719Y-125500789D01*
X114070164Y-125570607D01*
X113891223Y-125606200D01*
X113708777Y-125606200D01*
X113529836Y-125570607D01*
X113361281Y-125500789D01*
X113209580Y-125399425D01*
X113080575Y-125270420D01*
X112979211Y-125118719D01*
X112909393Y-124950164D01*
X112873800Y-124771223D01*
X112873800Y-124588777D01*
X112909393Y-124409836D01*
X112979211Y-124241281D01*
X113080575Y-124089580D01*
X113209580Y-123960575D01*
X113361281Y-123859211D01*
X113529836Y-123789393D01*
X113708777Y-123753800D01*
X113891223Y-123753800D01*
X114070164Y-123789393D01*
G37*
G36*
X181270164Y-123789393D02*
G01*
X181438719Y-123859211D01*
X181590420Y-123960575D01*
X181719425Y-124089580D01*
X181820789Y-124241281D01*
X181890607Y-124409836D01*
X181926200Y-124588777D01*
X181926200Y-124771223D01*
X181890607Y-124950164D01*
X181820789Y-125118719D01*
X181719425Y-125270420D01*
X181590420Y-125399425D01*
X181438719Y-125500789D01*
X181270164Y-125570607D01*
X181091223Y-125606200D01*
X180908777Y-125606200D01*
X180729836Y-125570607D01*
X180561281Y-125500789D01*
X180409580Y-125399425D01*
X180280575Y-125270420D01*
X180179211Y-125118719D01*
X180109393Y-124950164D01*
X180073800Y-124771223D01*
X180073800Y-124588777D01*
X180109393Y-124409836D01*
X180179211Y-124241281D01*
X180280575Y-124089580D01*
X180409580Y-123960575D01*
X180561281Y-123859211D01*
X180729836Y-123789393D01*
X180908777Y-123753800D01*
X181091223Y-123753800D01*
X181270164Y-123789393D01*
G37*
G36*
X116610164Y-123789393D02*
G01*
X116778719Y-123859211D01*
X116930420Y-123960575D01*
X117059425Y-124089580D01*
X117160789Y-124241281D01*
X117230607Y-124409836D01*
X117266200Y-124588777D01*
X117266200Y-124771223D01*
X117230607Y-124950164D01*
X117160789Y-125118719D01*
X117059425Y-125270420D01*
X116930420Y-125399425D01*
X116778719Y-125500789D01*
X116610164Y-125570607D01*
X116431223Y-125606200D01*
X116248777Y-125606200D01*
X116069836Y-125570607D01*
X115901281Y-125500789D01*
X115749580Y-125399425D01*
X115620575Y-125270420D01*
X115519211Y-125118719D01*
X115449393Y-124950164D01*
X115413800Y-124771223D01*
X115413800Y-124588777D01*
X115449393Y-124409836D01*
X115519211Y-124241281D01*
X115620575Y-124089580D01*
X115749580Y-123960575D01*
X115901281Y-123859211D01*
X116069836Y-123789393D01*
X116248777Y-123753800D01*
X116431223Y-123753800D01*
X116610164Y-123789393D01*
G37*
G36*
X178730164Y-121249393D02*
G01*
X178898719Y-121319211D01*
X179050420Y-121420575D01*
X179179425Y-121549580D01*
X179280789Y-121701281D01*
X179350607Y-121869836D01*
X179386200Y-122048777D01*
X179386200Y-122231223D01*
X179350607Y-122410164D01*
X179280789Y-122578719D01*
X179179425Y-122730420D01*
X179050420Y-122859425D01*
X178898719Y-122960789D01*
X178730164Y-123030607D01*
X178551223Y-123066200D01*
X178368777Y-123066200D01*
X178189836Y-123030607D01*
X178021281Y-122960789D01*
X177869580Y-122859425D01*
X177740575Y-122730420D01*
X177639211Y-122578719D01*
X177569393Y-122410164D01*
X177533800Y-122231223D01*
X177533800Y-122048777D01*
X177569393Y-121869836D01*
X177639211Y-121701281D01*
X177740575Y-121549580D01*
X177869580Y-121420575D01*
X178021281Y-121319211D01*
X178189836Y-121249393D01*
X178368777Y-121213800D01*
X178551223Y-121213800D01*
X178730164Y-121249393D01*
G37*
G36*
X117266200Y-123066200D02*
G01*
X115413800Y-123066200D01*
X115413800Y-121213800D01*
X117266200Y-121213800D01*
X117266200Y-123066200D01*
G37*
G36*
X114726200Y-123066200D02*
G01*
X112873800Y-123066200D01*
X112873800Y-121213800D01*
X114726200Y-121213800D01*
X114726200Y-123066200D01*
G37*
G36*
X176190164Y-121249393D02*
G01*
X176358719Y-121319211D01*
X176510420Y-121420575D01*
X176639425Y-121549580D01*
X176740789Y-121701281D01*
X176810607Y-121869836D01*
X176846200Y-122048777D01*
X176846200Y-122231223D01*
X176810607Y-122410164D01*
X176740789Y-122578719D01*
X176639425Y-122730420D01*
X176510420Y-122859425D01*
X176358719Y-122960789D01*
X176190164Y-123030607D01*
X176011223Y-123066200D01*
X175828777Y-123066200D01*
X175649836Y-123030607D01*
X175481281Y-122960789D01*
X175329580Y-122859425D01*
X175200575Y-122730420D01*
X175099211Y-122578719D01*
X175029393Y-122410164D01*
X174993800Y-122231223D01*
X174993800Y-122048777D01*
X175029393Y-121869836D01*
X175099211Y-121701281D01*
X175200575Y-121549580D01*
X175329580Y-121420575D01*
X175481281Y-121319211D01*
X175649836Y-121249393D01*
X175828777Y-121213800D01*
X176011223Y-121213800D01*
X176190164Y-121249393D01*
G37*
G36*
X185270164Y-121249393D02*
G01*
X185438719Y-121319211D01*
X185590420Y-121420575D01*
X185719425Y-121549580D01*
X185820789Y-121701281D01*
X185890607Y-121869836D01*
X185926200Y-122048777D01*
X185926200Y-122231223D01*
X185890607Y-122410164D01*
X185820789Y-122578719D01*
X185719425Y-122730420D01*
X185590420Y-122859425D01*
X185438719Y-122960789D01*
X185270164Y-123030607D01*
X185091223Y-123066200D01*
X184908777Y-123066200D01*
X184729836Y-123030607D01*
X184561281Y-122960789D01*
X184409580Y-122859425D01*
X184280575Y-122730420D01*
X184179211Y-122578719D01*
X184109393Y-122410164D01*
X184073800Y-122231223D01*
X184073800Y-122048777D01*
X184109393Y-121869836D01*
X184179211Y-121701281D01*
X184280575Y-121549580D01*
X184409580Y-121420575D01*
X184561281Y-121319211D01*
X184729836Y-121249393D01*
X184908777Y-121213800D01*
X185091223Y-121213800D01*
X185270164Y-121249393D01*
G37*
G36*
X119806200Y-123066200D02*
G01*
X117953800Y-123066200D01*
X117953800Y-121213800D01*
X119806200Y-121213800D01*
X119806200Y-123066200D01*
G37*
G36*
X110726200Y-123066200D02*
G01*
X108873800Y-123066200D01*
X108873800Y-121213800D01*
X110726200Y-121213800D01*
X110726200Y-123066200D01*
G37*
G36*
X181270164Y-121249393D02*
G01*
X181438719Y-121319211D01*
X181590420Y-121420575D01*
X181719425Y-121549580D01*
X181820789Y-121701281D01*
X181890607Y-121869836D01*
X181926200Y-122048777D01*
X181926200Y-122231223D01*
X181890607Y-122410164D01*
X181820789Y-122578719D01*
X181719425Y-122730420D01*
X181590420Y-122859425D01*
X181438719Y-122960789D01*
X181270164Y-123030607D01*
X181091223Y-123066200D01*
X180908777Y-123066200D01*
X180729836Y-123030607D01*
X180561281Y-122960789D01*
X180409580Y-122859425D01*
X180280575Y-122730420D01*
X180179211Y-122578719D01*
X180109393Y-122410164D01*
X180073800Y-122231223D01*
X180073800Y-122048777D01*
X180109393Y-121869836D01*
X180179211Y-121701281D01*
X180280575Y-121549580D01*
X180409580Y-121420575D01*
X180561281Y-121319211D01*
X180729836Y-121249393D01*
X180908777Y-121213800D01*
X181091223Y-121213800D01*
X181270164Y-121249393D01*
G37*
G36*
X191038290Y-117185309D02*
G01*
X191241940Y-117225817D01*
X191625606Y-117384736D01*
X191740704Y-117461643D01*
X191970899Y-117615454D01*
X192264546Y-117909101D01*
X192418357Y-118139296D01*
X192495264Y-118254394D01*
X192654183Y-118638060D01*
X192735200Y-119045361D01*
X192735200Y-119460639D01*
X192654183Y-119867940D01*
X192495264Y-120251606D01*
X192449948Y-120319426D01*
X192264546Y-120596899D01*
X191970899Y-120890546D01*
X191740704Y-121044357D01*
X191625606Y-121121264D01*
X191241940Y-121280183D01*
X191045732Y-121319211D01*
X190834640Y-121361200D01*
X190419360Y-121361200D01*
X190208268Y-121319211D01*
X190012060Y-121280183D01*
X189628394Y-121121264D01*
X189513296Y-121044357D01*
X189283101Y-120890546D01*
X188989454Y-120596899D01*
X188804052Y-120319426D01*
X188758736Y-120251606D01*
X188599817Y-119867940D01*
X188518800Y-119460639D01*
X188518800Y-119045361D01*
X188599817Y-118638060D01*
X188758736Y-118254394D01*
X188835643Y-118139296D01*
X188989454Y-117909101D01*
X189283101Y-117615454D01*
X189513296Y-117461643D01*
X189628394Y-117384736D01*
X190012060Y-117225817D01*
X190215710Y-117185309D01*
X190419360Y-117144800D01*
X190834640Y-117144800D01*
X191038290Y-117185309D01*
G37*
G36*
X104271890Y-117185309D02*
G01*
X104475540Y-117225817D01*
X104859206Y-117384736D01*
X104974304Y-117461643D01*
X105204499Y-117615454D01*
X105498146Y-117909101D01*
X105651957Y-118139296D01*
X105728864Y-118254394D01*
X105887783Y-118638060D01*
X105968800Y-119045361D01*
X105968800Y-119460639D01*
X105887783Y-119867940D01*
X105728864Y-120251606D01*
X105683548Y-120319426D01*
X105498146Y-120596899D01*
X105204499Y-120890546D01*
X104974304Y-121044357D01*
X104859206Y-121121264D01*
X104475540Y-121280183D01*
X104279332Y-121319211D01*
X104068240Y-121361200D01*
X103652960Y-121361200D01*
X103441868Y-121319211D01*
X103245660Y-121280183D01*
X102861994Y-121121264D01*
X102746896Y-121044357D01*
X102516701Y-120890546D01*
X102223054Y-120596899D01*
X102037652Y-120319426D01*
X101992336Y-120251606D01*
X101833417Y-119867940D01*
X101752400Y-119460639D01*
X101752400Y-119045361D01*
X101833417Y-118638060D01*
X101992336Y-118254394D01*
X102069243Y-118139296D01*
X102223054Y-117909101D01*
X102516701Y-117615454D01*
X102746896Y-117461643D01*
X102861994Y-117384736D01*
X103245660Y-117225817D01*
X103449310Y-117185309D01*
X103652960Y-117144800D01*
X104068240Y-117144800D01*
X104271890Y-117185309D01*
G37*
G36*
X181270164Y-118709393D02*
G01*
X181438719Y-118779211D01*
X181590420Y-118880575D01*
X181719425Y-119009580D01*
X181820789Y-119161281D01*
X181890607Y-119329836D01*
X181926200Y-119508777D01*
X181926200Y-119691223D01*
X181890607Y-119870164D01*
X181820789Y-120038719D01*
X181719425Y-120190420D01*
X181590420Y-120319425D01*
X181438719Y-120420789D01*
X181270164Y-120490607D01*
X181091223Y-120526200D01*
X180908777Y-120526200D01*
X180729836Y-120490607D01*
X180561281Y-120420789D01*
X180409580Y-120319425D01*
X180280575Y-120190420D01*
X180179211Y-120038719D01*
X180109393Y-119870164D01*
X180073800Y-119691223D01*
X180073800Y-119508777D01*
X180109393Y-119329836D01*
X180179211Y-119161281D01*
X180280575Y-119009580D01*
X180409580Y-118880575D01*
X180561281Y-118779211D01*
X180729836Y-118709393D01*
X180908777Y-118673800D01*
X181091223Y-118673800D01*
X181270164Y-118709393D01*
G37*
G36*
X178730164Y-118709393D02*
G01*
X178898719Y-118779211D01*
X179050420Y-118880575D01*
X179179425Y-119009580D01*
X179280789Y-119161281D01*
X179350607Y-119329836D01*
X179386200Y-119508777D01*
X179386200Y-119691223D01*
X179350607Y-119870164D01*
X179280789Y-120038719D01*
X179179425Y-120190420D01*
X179050420Y-120319425D01*
X178898719Y-120420789D01*
X178730164Y-120490607D01*
X178551223Y-120526200D01*
X178368777Y-120526200D01*
X178189836Y-120490607D01*
X178021281Y-120420789D01*
X177869580Y-120319425D01*
X177740575Y-120190420D01*
X177639211Y-120038719D01*
X177569393Y-119870164D01*
X177533800Y-119691223D01*
X177533800Y-119508777D01*
X177569393Y-119329836D01*
X177639211Y-119161281D01*
X177740575Y-119009580D01*
X177869580Y-118880575D01*
X178021281Y-118779211D01*
X178189836Y-118709393D01*
X178368777Y-118673800D01*
X178551223Y-118673800D01*
X178730164Y-118709393D01*
G37*
G36*
X176190164Y-118709393D02*
G01*
X176358719Y-118779211D01*
X176510420Y-118880575D01*
X176639425Y-119009580D01*
X176740789Y-119161281D01*
X176810607Y-119329836D01*
X176846200Y-119508777D01*
X176846200Y-119691223D01*
X176810607Y-119870164D01*
X176740789Y-120038719D01*
X176639425Y-120190420D01*
X176510420Y-120319425D01*
X176358719Y-120420789D01*
X176190164Y-120490607D01*
X176011223Y-120526200D01*
X175828777Y-120526200D01*
X175649836Y-120490607D01*
X175481281Y-120420789D01*
X175329580Y-120319425D01*
X175200575Y-120190420D01*
X175099211Y-120038719D01*
X175029393Y-119870164D01*
X174993800Y-119691223D01*
X174993800Y-119508777D01*
X175029393Y-119329836D01*
X175099211Y-119161281D01*
X175200575Y-119009580D01*
X175329580Y-118880575D01*
X175481281Y-118779211D01*
X175649836Y-118709393D01*
X175828777Y-118673800D01*
X176011223Y-118673800D01*
X176190164Y-118709393D01*
G37*
G36*
X185270164Y-118709393D02*
G01*
X185438719Y-118779211D01*
X185590420Y-118880575D01*
X185719425Y-119009580D01*
X185820789Y-119161281D01*
X185890607Y-119329836D01*
X185926200Y-119508777D01*
X185926200Y-119691223D01*
X185890607Y-119870164D01*
X185820789Y-120038719D01*
X185719425Y-120190420D01*
X185590420Y-120319425D01*
X185438719Y-120420789D01*
X185270164Y-120490607D01*
X185091223Y-120526200D01*
X184908777Y-120526200D01*
X184729836Y-120490607D01*
X184561281Y-120420789D01*
X184409580Y-120319425D01*
X184280575Y-120190420D01*
X184179211Y-120038719D01*
X184109393Y-119870164D01*
X184073800Y-119691223D01*
X184073800Y-119508777D01*
X184109393Y-119329836D01*
X184179211Y-119161281D01*
X184280575Y-119009580D01*
X184409580Y-118880575D01*
X184561281Y-118779211D01*
X184729836Y-118709393D01*
X184908777Y-118673800D01*
X185091223Y-118673800D01*
X185270164Y-118709393D01*
G37*
G36*
X110070164Y-116229393D02*
G01*
X110238719Y-116299211D01*
X110390420Y-116400575D01*
X110519425Y-116529580D01*
X110620789Y-116681281D01*
X110690607Y-116849836D01*
X110726200Y-117028777D01*
X110726200Y-117211223D01*
X110690607Y-117390164D01*
X110620789Y-117558719D01*
X110519425Y-117710420D01*
X110390420Y-117839425D01*
X110238719Y-117940789D01*
X110070164Y-118010607D01*
X109891223Y-118046200D01*
X109708777Y-118046200D01*
X109529836Y-118010607D01*
X109361281Y-117940789D01*
X109209580Y-117839425D01*
X109080575Y-117710420D01*
X108979211Y-117558719D01*
X108909393Y-117390164D01*
X108873800Y-117211223D01*
X108873800Y-117028777D01*
X108909393Y-116849836D01*
X108979211Y-116681281D01*
X109080575Y-116529580D01*
X109209580Y-116400575D01*
X109361281Y-116299211D01*
X109529836Y-116229393D01*
X109708777Y-116193800D01*
X109891223Y-116193800D01*
X110070164Y-116229393D01*
G37*
G36*
X185926200Y-117986200D02*
G01*
X184073800Y-117986200D01*
X184073800Y-116133800D01*
X185926200Y-116133800D01*
X185926200Y-117986200D01*
G37*
G36*
X181926200Y-117986200D02*
G01*
X180073800Y-117986200D01*
X180073800Y-116133800D01*
X181926200Y-116133800D01*
X181926200Y-117986200D01*
G37*
G36*
X179386200Y-117986200D02*
G01*
X177533800Y-117986200D01*
X177533800Y-116133800D01*
X179386200Y-116133800D01*
X179386200Y-117986200D01*
G37*
G36*
X176846200Y-117986200D02*
G01*
X174993800Y-117986200D01*
X174993800Y-116133800D01*
X176846200Y-116133800D01*
X176846200Y-117986200D01*
G37*
G36*
X137989134Y-116250000D02*
G01*
X136750000Y-117489134D01*
X135510866Y-116250000D01*
X136750000Y-115010866D01*
X137989134Y-116250000D01*
G37*
G36*
X110070164Y-113689393D02*
G01*
X110238719Y-113759211D01*
X110390420Y-113860575D01*
X110519425Y-113989580D01*
X110620789Y-114141281D01*
X110690607Y-114309836D01*
X110726200Y-114488777D01*
X110726200Y-114671223D01*
X110690607Y-114850164D01*
X110620789Y-115018719D01*
X110519425Y-115170420D01*
X110390420Y-115299425D01*
X110238719Y-115400789D01*
X110070164Y-115470607D01*
X109891223Y-115506200D01*
X109708777Y-115506200D01*
X109529836Y-115470607D01*
X109361281Y-115400789D01*
X109209580Y-115299425D01*
X109080575Y-115170420D01*
X108979211Y-115018719D01*
X108909393Y-114850164D01*
X108873800Y-114671223D01*
X108873800Y-114488777D01*
X108909393Y-114309836D01*
X108979211Y-114141281D01*
X109080575Y-113989580D01*
X109209580Y-113860575D01*
X109361281Y-113759211D01*
X109529836Y-113689393D01*
X109708777Y-113653800D01*
X109891223Y-113653800D01*
X110070164Y-113689393D01*
G37*
G36*
X181270164Y-112109393D02*
G01*
X181438719Y-112179211D01*
X181590420Y-112280575D01*
X181719425Y-112409580D01*
X181820789Y-112561281D01*
X181890607Y-112729836D01*
X181926200Y-112908777D01*
X181926200Y-113091223D01*
X181890607Y-113270164D01*
X181820789Y-113438719D01*
X181719425Y-113590420D01*
X181590420Y-113719425D01*
X181438719Y-113820789D01*
X181270164Y-113890607D01*
X181091223Y-113926200D01*
X180908777Y-113926200D01*
X180729836Y-113890607D01*
X180561281Y-113820789D01*
X180409580Y-113719425D01*
X180280575Y-113590420D01*
X180179211Y-113438719D01*
X180109393Y-113270164D01*
X180073800Y-113091223D01*
X180073800Y-112908777D01*
X180109393Y-112729836D01*
X180179211Y-112561281D01*
X180280575Y-112409580D01*
X180409580Y-112280575D01*
X180561281Y-112179211D01*
X180729836Y-112109393D01*
X180908777Y-112073800D01*
X181091223Y-112073800D01*
X181270164Y-112109393D01*
G37*
G36*
X176190164Y-112109393D02*
G01*
X176358719Y-112179211D01*
X176510420Y-112280575D01*
X176639425Y-112409580D01*
X176740789Y-112561281D01*
X176810607Y-112729836D01*
X176846200Y-112908777D01*
X176846200Y-113091223D01*
X176810607Y-113270164D01*
X176740789Y-113438719D01*
X176639425Y-113590420D01*
X176510420Y-113719425D01*
X176358719Y-113820789D01*
X176190164Y-113890607D01*
X176011223Y-113926200D01*
X175828777Y-113926200D01*
X175649836Y-113890607D01*
X175481281Y-113820789D01*
X175329580Y-113719425D01*
X175200575Y-113590420D01*
X175099211Y-113438719D01*
X175029393Y-113270164D01*
X174993800Y-113091223D01*
X174993800Y-112908777D01*
X175029393Y-112729836D01*
X175099211Y-112561281D01*
X175200575Y-112409580D01*
X175329580Y-112280575D01*
X175481281Y-112179211D01*
X175649836Y-112109393D01*
X175828777Y-112073800D01*
X176011223Y-112073800D01*
X176190164Y-112109393D01*
G37*
G36*
X178730164Y-112109393D02*
G01*
X178898719Y-112179211D01*
X179050420Y-112280575D01*
X179179425Y-112409580D01*
X179280789Y-112561281D01*
X179350607Y-112729836D01*
X179386200Y-112908777D01*
X179386200Y-113091223D01*
X179350607Y-113270164D01*
X179280789Y-113438719D01*
X179179425Y-113590420D01*
X179050420Y-113719425D01*
X178898719Y-113820789D01*
X178730164Y-113890607D01*
X178551223Y-113926200D01*
X178368777Y-113926200D01*
X178189836Y-113890607D01*
X178021281Y-113820789D01*
X177869580Y-113719425D01*
X177740575Y-113590420D01*
X177639211Y-113438719D01*
X177569393Y-113270164D01*
X177533800Y-113091223D01*
X177533800Y-112908777D01*
X177569393Y-112729836D01*
X177639211Y-112561281D01*
X177740575Y-112409580D01*
X177869580Y-112280575D01*
X178021281Y-112179211D01*
X178189836Y-112109393D01*
X178368777Y-112073800D01*
X178551223Y-112073800D01*
X178730164Y-112109393D01*
G37*
G36*
X185270164Y-112109393D02*
G01*
X185438719Y-112179211D01*
X185590420Y-112280575D01*
X185719425Y-112409580D01*
X185820789Y-112561281D01*
X185890607Y-112729836D01*
X185926200Y-112908777D01*
X185926200Y-113091223D01*
X185890607Y-113270164D01*
X185820789Y-113438719D01*
X185719425Y-113590420D01*
X185590420Y-113719425D01*
X185438719Y-113820789D01*
X185270164Y-113890607D01*
X185091223Y-113926200D01*
X184908777Y-113926200D01*
X184729836Y-113890607D01*
X184561281Y-113820789D01*
X184409580Y-113719425D01*
X184280575Y-113590420D01*
X184179211Y-113438719D01*
X184109393Y-113270164D01*
X184073800Y-113091223D01*
X184073800Y-112908777D01*
X184109393Y-112729836D01*
X184179211Y-112561281D01*
X184280575Y-112409580D01*
X184409580Y-112280575D01*
X184561281Y-112179211D01*
X184729836Y-112109393D01*
X184908777Y-112073800D01*
X185091223Y-112073800D01*
X185270164Y-112109393D01*
G37*
G36*
X110070164Y-111149393D02*
G01*
X110238719Y-111219211D01*
X110390420Y-111320575D01*
X110519425Y-111449580D01*
X110620789Y-111601281D01*
X110690607Y-111769836D01*
X110726200Y-111948777D01*
X110726200Y-112131223D01*
X110690607Y-112310164D01*
X110620789Y-112478719D01*
X110519425Y-112630420D01*
X110390420Y-112759425D01*
X110238719Y-112860789D01*
X110070164Y-112930607D01*
X109891223Y-112966200D01*
X109708777Y-112966200D01*
X109529836Y-112930607D01*
X109361281Y-112860789D01*
X109209580Y-112759425D01*
X109080575Y-112630420D01*
X108979211Y-112478719D01*
X108909393Y-112310164D01*
X108873800Y-112131223D01*
X108873800Y-111948777D01*
X108909393Y-111769836D01*
X108979211Y-111601281D01*
X109080575Y-111449580D01*
X109209580Y-111320575D01*
X109361281Y-111219211D01*
X109529836Y-111149393D01*
X109708777Y-111113800D01*
X109891223Y-111113800D01*
X110070164Y-111149393D01*
G37*
G36*
X142393732Y-110019317D02*
G01*
X142553191Y-110085367D01*
X142667842Y-110161975D01*
X142696701Y-110181258D01*
X142818742Y-110303299D01*
X142818743Y-110303301D01*
X142914633Y-110446809D01*
X142980683Y-110606268D01*
X143014354Y-110775548D01*
X143014354Y-110948144D01*
X142980683Y-111117424D01*
X142914633Y-111276883D01*
X142841589Y-111386200D01*
X142818742Y-111420393D01*
X142696701Y-111542434D01*
X142667842Y-111561717D01*
X142553191Y-111638325D01*
X142393732Y-111704375D01*
X142224452Y-111738046D01*
X142051856Y-111738046D01*
X141882576Y-111704375D01*
X141723117Y-111638325D01*
X141608466Y-111561717D01*
X141579607Y-111542434D01*
X141457566Y-111420393D01*
X141434719Y-111386200D01*
X141361675Y-111276883D01*
X141295625Y-111117424D01*
X141261954Y-110948144D01*
X141261954Y-110775548D01*
X141295625Y-110606268D01*
X141361675Y-110446809D01*
X141457565Y-110303301D01*
X141457566Y-110303299D01*
X141579607Y-110181258D01*
X141608466Y-110161975D01*
X141723117Y-110085367D01*
X141882576Y-110019317D01*
X142051856Y-109985646D01*
X142224452Y-109985646D01*
X142393732Y-110019317D01*
G37*
G36*
X178730164Y-109569393D02*
G01*
X178898719Y-109639211D01*
X179050420Y-109740575D01*
X179179425Y-109869580D01*
X179280789Y-110021281D01*
X179350607Y-110189836D01*
X179386200Y-110368777D01*
X179386200Y-110551223D01*
X179350607Y-110730164D01*
X179280789Y-110898719D01*
X179179425Y-111050420D01*
X179050420Y-111179425D01*
X178898719Y-111280789D01*
X178730164Y-111350607D01*
X178551223Y-111386200D01*
X178368777Y-111386200D01*
X178189836Y-111350607D01*
X178021281Y-111280789D01*
X177869580Y-111179425D01*
X177740575Y-111050420D01*
X177639211Y-110898719D01*
X177569393Y-110730164D01*
X177533800Y-110551223D01*
X177533800Y-110368777D01*
X177569393Y-110189836D01*
X177639211Y-110021281D01*
X177740575Y-109869580D01*
X177869580Y-109740575D01*
X178021281Y-109639211D01*
X178189836Y-109569393D01*
X178368777Y-109533800D01*
X178551223Y-109533800D01*
X178730164Y-109569393D01*
G37*
G36*
X176190164Y-109569393D02*
G01*
X176358719Y-109639211D01*
X176510420Y-109740575D01*
X176639425Y-109869580D01*
X176740789Y-110021281D01*
X176810607Y-110189836D01*
X176846200Y-110368777D01*
X176846200Y-110551223D01*
X176810607Y-110730164D01*
X176740789Y-110898719D01*
X176639425Y-111050420D01*
X176510420Y-111179425D01*
X176358719Y-111280789D01*
X176190164Y-111350607D01*
X176011223Y-111386200D01*
X175828777Y-111386200D01*
X175649836Y-111350607D01*
X175481281Y-111280789D01*
X175329580Y-111179425D01*
X175200575Y-111050420D01*
X175099211Y-110898719D01*
X175029393Y-110730164D01*
X174993800Y-110551223D01*
X174993800Y-110368777D01*
X175029393Y-110189836D01*
X175099211Y-110021281D01*
X175200575Y-109869580D01*
X175329580Y-109740575D01*
X175481281Y-109639211D01*
X175649836Y-109569393D01*
X175828777Y-109533800D01*
X176011223Y-109533800D01*
X176190164Y-109569393D01*
G37*
G36*
X185270164Y-109569393D02*
G01*
X185438719Y-109639211D01*
X185590420Y-109740575D01*
X185719425Y-109869580D01*
X185820789Y-110021281D01*
X185890607Y-110189836D01*
X185926200Y-110368777D01*
X185926200Y-110551223D01*
X185890607Y-110730164D01*
X185820789Y-110898719D01*
X185719425Y-111050420D01*
X185590420Y-111179425D01*
X185438719Y-111280789D01*
X185270164Y-111350607D01*
X185091223Y-111386200D01*
X184908777Y-111386200D01*
X184729836Y-111350607D01*
X184561281Y-111280789D01*
X184409580Y-111179425D01*
X184280575Y-111050420D01*
X184179211Y-110898719D01*
X184109393Y-110730164D01*
X184073800Y-110551223D01*
X184073800Y-110368777D01*
X184109393Y-110189836D01*
X184179211Y-110021281D01*
X184280575Y-109869580D01*
X184409580Y-109740575D01*
X184561281Y-109639211D01*
X184729836Y-109569393D01*
X184908777Y-109533800D01*
X185091223Y-109533800D01*
X185270164Y-109569393D01*
G37*
G36*
X181270164Y-109569393D02*
G01*
X181438719Y-109639211D01*
X181590420Y-109740575D01*
X181719425Y-109869580D01*
X181820789Y-110021281D01*
X181890607Y-110189836D01*
X181926200Y-110368777D01*
X181926200Y-110551223D01*
X181890607Y-110730164D01*
X181820789Y-110898719D01*
X181719425Y-111050420D01*
X181590420Y-111179425D01*
X181438719Y-111280789D01*
X181270164Y-111350607D01*
X181091223Y-111386200D01*
X180908777Y-111386200D01*
X180729836Y-111350607D01*
X180561281Y-111280789D01*
X180409580Y-111179425D01*
X180280575Y-111050420D01*
X180179211Y-110898719D01*
X180109393Y-110730164D01*
X180073800Y-110551223D01*
X180073800Y-110368777D01*
X180109393Y-110189836D01*
X180179211Y-110021281D01*
X180280575Y-109869580D01*
X180409580Y-109740575D01*
X180561281Y-109639211D01*
X180729836Y-109569393D01*
X180908777Y-109533800D01*
X181091223Y-109533800D01*
X181270164Y-109569393D01*
G37*
G36*
X110070164Y-108609393D02*
G01*
X110238719Y-108679211D01*
X110390420Y-108780575D01*
X110519425Y-108909580D01*
X110620789Y-109061281D01*
X110690607Y-109229836D01*
X110726200Y-109408777D01*
X110726200Y-109591223D01*
X110690607Y-109770164D01*
X110620789Y-109938719D01*
X110519425Y-110090420D01*
X110390420Y-110219425D01*
X110238719Y-110320789D01*
X110070164Y-110390607D01*
X109891223Y-110426200D01*
X109708777Y-110426200D01*
X109529836Y-110390607D01*
X109361281Y-110320789D01*
X109209580Y-110219425D01*
X109080575Y-110090420D01*
X108979211Y-109938719D01*
X108909393Y-109770164D01*
X108873800Y-109591223D01*
X108873800Y-109408777D01*
X108909393Y-109229836D01*
X108979211Y-109061281D01*
X109080575Y-108909580D01*
X109209580Y-108780575D01*
X109361281Y-108679211D01*
X109529836Y-108609393D01*
X109708777Y-108573800D01*
X109891223Y-108573800D01*
X110070164Y-108609393D01*
G37*
G36*
X178730164Y-107029393D02*
G01*
X178898719Y-107099211D01*
X179050420Y-107200575D01*
X179179425Y-107329580D01*
X179280789Y-107481281D01*
X179350607Y-107649836D01*
X179386200Y-107828777D01*
X179386200Y-108011223D01*
X179350607Y-108190164D01*
X179280789Y-108358719D01*
X179179425Y-108510420D01*
X179050420Y-108639425D01*
X178898719Y-108740789D01*
X178730164Y-108810607D01*
X178551223Y-108846200D01*
X178368777Y-108846200D01*
X178189836Y-108810607D01*
X178021281Y-108740789D01*
X177869580Y-108639425D01*
X177740575Y-108510420D01*
X177639211Y-108358719D01*
X177569393Y-108190164D01*
X177533800Y-108011223D01*
X177533800Y-107828777D01*
X177569393Y-107649836D01*
X177639211Y-107481281D01*
X177740575Y-107329580D01*
X177869580Y-107200575D01*
X178021281Y-107099211D01*
X178189836Y-107029393D01*
X178368777Y-106993800D01*
X178551223Y-106993800D01*
X178730164Y-107029393D01*
G37*
G36*
X176190164Y-107029393D02*
G01*
X176358719Y-107099211D01*
X176510420Y-107200575D01*
X176639425Y-107329580D01*
X176740789Y-107481281D01*
X176810607Y-107649836D01*
X176846200Y-107828777D01*
X176846200Y-108011223D01*
X176810607Y-108190164D01*
X176740789Y-108358719D01*
X176639425Y-108510420D01*
X176510420Y-108639425D01*
X176358719Y-108740789D01*
X176190164Y-108810607D01*
X176011223Y-108846200D01*
X175828777Y-108846200D01*
X175649836Y-108810607D01*
X175481281Y-108740789D01*
X175329580Y-108639425D01*
X175200575Y-108510420D01*
X175099211Y-108358719D01*
X175029393Y-108190164D01*
X174993800Y-108011223D01*
X174993800Y-107828777D01*
X175029393Y-107649836D01*
X175099211Y-107481281D01*
X175200575Y-107329580D01*
X175329580Y-107200575D01*
X175481281Y-107099211D01*
X175649836Y-107029393D01*
X175828777Y-106993800D01*
X176011223Y-106993800D01*
X176190164Y-107029393D01*
G37*
G36*
X181270164Y-107029393D02*
G01*
X181438719Y-107099211D01*
X181590420Y-107200575D01*
X181719425Y-107329580D01*
X181820789Y-107481281D01*
X181890607Y-107649836D01*
X181926200Y-107828777D01*
X181926200Y-108011223D01*
X181890607Y-108190164D01*
X181820789Y-108358719D01*
X181719425Y-108510420D01*
X181590420Y-108639425D01*
X181438719Y-108740789D01*
X181270164Y-108810607D01*
X181091223Y-108846200D01*
X180908777Y-108846200D01*
X180729836Y-108810607D01*
X180561281Y-108740789D01*
X180409580Y-108639425D01*
X180280575Y-108510420D01*
X180179211Y-108358719D01*
X180109393Y-108190164D01*
X180073800Y-108011223D01*
X180073800Y-107828777D01*
X180109393Y-107649836D01*
X180179211Y-107481281D01*
X180280575Y-107329580D01*
X180409580Y-107200575D01*
X180561281Y-107099211D01*
X180729836Y-107029393D01*
X180908777Y-106993800D01*
X181091223Y-106993800D01*
X181270164Y-107029393D01*
G37*
G36*
X185270164Y-107029393D02*
G01*
X185438719Y-107099211D01*
X185590420Y-107200575D01*
X185719425Y-107329580D01*
X185820789Y-107481281D01*
X185890607Y-107649836D01*
X185926200Y-107828777D01*
X185926200Y-108011223D01*
X185890607Y-108190164D01*
X185820789Y-108358719D01*
X185719425Y-108510420D01*
X185590420Y-108639425D01*
X185438719Y-108740789D01*
X185270164Y-108810607D01*
X185091223Y-108846200D01*
X184908777Y-108846200D01*
X184729836Y-108810607D01*
X184561281Y-108740789D01*
X184409580Y-108639425D01*
X184280575Y-108510420D01*
X184179211Y-108358719D01*
X184109393Y-108190164D01*
X184073800Y-108011223D01*
X184073800Y-107828777D01*
X184109393Y-107649836D01*
X184179211Y-107481281D01*
X184280575Y-107329580D01*
X184409580Y-107200575D01*
X184561281Y-107099211D01*
X184729836Y-107029393D01*
X184908777Y-106993800D01*
X185091223Y-106993800D01*
X185270164Y-107029393D01*
G37*
G36*
X110070164Y-106069393D02*
G01*
X110238719Y-106139211D01*
X110390420Y-106240575D01*
X110519425Y-106369580D01*
X110620789Y-106521281D01*
X110690607Y-106689836D01*
X110726200Y-106868777D01*
X110726200Y-107051223D01*
X110690607Y-107230164D01*
X110620789Y-107398719D01*
X110519425Y-107550420D01*
X110390420Y-107679425D01*
X110238719Y-107780789D01*
X110070164Y-107850607D01*
X109891223Y-107886200D01*
X109708777Y-107886200D01*
X109529836Y-107850607D01*
X109361281Y-107780789D01*
X109209580Y-107679425D01*
X109080575Y-107550420D01*
X108979211Y-107398719D01*
X108909393Y-107230164D01*
X108873800Y-107051223D01*
X108873800Y-106868777D01*
X108909393Y-106689836D01*
X108979211Y-106521281D01*
X109080575Y-106369580D01*
X109209580Y-106240575D01*
X109361281Y-106139211D01*
X109529836Y-106069393D01*
X109708777Y-106033800D01*
X109891223Y-106033800D01*
X110070164Y-106069393D01*
G37*
G36*
X176190164Y-104489393D02*
G01*
X176358719Y-104559211D01*
X176510420Y-104660575D01*
X176639425Y-104789580D01*
X176740789Y-104941281D01*
X176810607Y-105109836D01*
X176846200Y-105288777D01*
X176846200Y-105471223D01*
X176810607Y-105650164D01*
X176740789Y-105818719D01*
X176639425Y-105970420D01*
X176510420Y-106099425D01*
X176358719Y-106200789D01*
X176190164Y-106270607D01*
X176011223Y-106306200D01*
X175828777Y-106306200D01*
X175649836Y-106270607D01*
X175481281Y-106200789D01*
X175329580Y-106099425D01*
X175200575Y-105970420D01*
X175099211Y-105818719D01*
X175029393Y-105650164D01*
X174993800Y-105471223D01*
X174993800Y-105288777D01*
X175029393Y-105109836D01*
X175099211Y-104941281D01*
X175200575Y-104789580D01*
X175329580Y-104660575D01*
X175481281Y-104559211D01*
X175649836Y-104489393D01*
X175828777Y-104453800D01*
X176011223Y-104453800D01*
X176190164Y-104489393D01*
G37*
G36*
X178730164Y-104489393D02*
G01*
X178898719Y-104559211D01*
X179050420Y-104660575D01*
X179179425Y-104789580D01*
X179280789Y-104941281D01*
X179350607Y-105109836D01*
X179386200Y-105288777D01*
X179386200Y-105471223D01*
X179350607Y-105650164D01*
X179280789Y-105818719D01*
X179179425Y-105970420D01*
X179050420Y-106099425D01*
X178898719Y-106200789D01*
X178730164Y-106270607D01*
X178551223Y-106306200D01*
X178368777Y-106306200D01*
X178189836Y-106270607D01*
X178021281Y-106200789D01*
X177869580Y-106099425D01*
X177740575Y-105970420D01*
X177639211Y-105818719D01*
X177569393Y-105650164D01*
X177533800Y-105471223D01*
X177533800Y-105288777D01*
X177569393Y-105109836D01*
X177639211Y-104941281D01*
X177740575Y-104789580D01*
X177869580Y-104660575D01*
X178021281Y-104559211D01*
X178189836Y-104489393D01*
X178368777Y-104453800D01*
X178551223Y-104453800D01*
X178730164Y-104489393D01*
G37*
G36*
X181270164Y-104489393D02*
G01*
X181438719Y-104559211D01*
X181590420Y-104660575D01*
X181719425Y-104789580D01*
X181820789Y-104941281D01*
X181890607Y-105109836D01*
X181926200Y-105288777D01*
X181926200Y-105471223D01*
X181890607Y-105650164D01*
X181820789Y-105818719D01*
X181719425Y-105970420D01*
X181590420Y-106099425D01*
X181438719Y-106200789D01*
X181270164Y-106270607D01*
X181091223Y-106306200D01*
X180908777Y-106306200D01*
X180729836Y-106270607D01*
X180561281Y-106200789D01*
X180409580Y-106099425D01*
X180280575Y-105970420D01*
X180179211Y-105818719D01*
X180109393Y-105650164D01*
X180073800Y-105471223D01*
X180073800Y-105288777D01*
X180109393Y-105109836D01*
X180179211Y-104941281D01*
X180280575Y-104789580D01*
X180409580Y-104660575D01*
X180561281Y-104559211D01*
X180729836Y-104489393D01*
X180908777Y-104453800D01*
X181091223Y-104453800D01*
X181270164Y-104489393D01*
G37*
G36*
X185270164Y-104489393D02*
G01*
X185438719Y-104559211D01*
X185590420Y-104660575D01*
X185719425Y-104789580D01*
X185820789Y-104941281D01*
X185890607Y-105109836D01*
X185926200Y-105288777D01*
X185926200Y-105471223D01*
X185890607Y-105650164D01*
X185820789Y-105818719D01*
X185719425Y-105970420D01*
X185590420Y-106099425D01*
X185438719Y-106200789D01*
X185270164Y-106270607D01*
X185091223Y-106306200D01*
X184908777Y-106306200D01*
X184729836Y-106270607D01*
X184561281Y-106200789D01*
X184409580Y-106099425D01*
X184280575Y-105970420D01*
X184179211Y-105818719D01*
X184109393Y-105650164D01*
X184073800Y-105471223D01*
X184073800Y-105288777D01*
X184109393Y-105109836D01*
X184179211Y-104941281D01*
X184280575Y-104789580D01*
X184409580Y-104660575D01*
X184561281Y-104559211D01*
X184729836Y-104489393D01*
X184908777Y-104453800D01*
X185091223Y-104453800D01*
X185270164Y-104489393D01*
G37*
G36*
X110070164Y-103529393D02*
G01*
X110238719Y-103599211D01*
X110390420Y-103700575D01*
X110519425Y-103829580D01*
X110620789Y-103981281D01*
X110690607Y-104149836D01*
X110726200Y-104328777D01*
X110726200Y-104511223D01*
X110690607Y-104690164D01*
X110620789Y-104858719D01*
X110519425Y-105010420D01*
X110390420Y-105139425D01*
X110238719Y-105240789D01*
X110070164Y-105310607D01*
X109891223Y-105346200D01*
X109708777Y-105346200D01*
X109529836Y-105310607D01*
X109361281Y-105240789D01*
X109209580Y-105139425D01*
X109080575Y-105010420D01*
X108979211Y-104858719D01*
X108909393Y-104690164D01*
X108873800Y-104511223D01*
X108873800Y-104328777D01*
X108909393Y-104149836D01*
X108979211Y-103981281D01*
X109080575Y-103829580D01*
X109209580Y-103700575D01*
X109361281Y-103599211D01*
X109529836Y-103529393D01*
X109708777Y-103493800D01*
X109891223Y-103493800D01*
X110070164Y-103529393D01*
G37*
G36*
X178730164Y-101949393D02*
G01*
X178898719Y-102019211D01*
X179050420Y-102120575D01*
X179179425Y-102249580D01*
X179280789Y-102401281D01*
X179350607Y-102569836D01*
X179386200Y-102748777D01*
X179386200Y-102931223D01*
X179350607Y-103110164D01*
X179280789Y-103278719D01*
X179179425Y-103430420D01*
X179050420Y-103559425D01*
X178898719Y-103660789D01*
X178730164Y-103730607D01*
X178551223Y-103766200D01*
X178368777Y-103766200D01*
X178189836Y-103730607D01*
X178021281Y-103660789D01*
X177869580Y-103559425D01*
X177740575Y-103430420D01*
X177639211Y-103278719D01*
X177569393Y-103110164D01*
X177533800Y-102931223D01*
X177533800Y-102748777D01*
X177569393Y-102569836D01*
X177639211Y-102401281D01*
X177740575Y-102249580D01*
X177869580Y-102120575D01*
X178021281Y-102019211D01*
X178189836Y-101949393D01*
X178368777Y-101913800D01*
X178551223Y-101913800D01*
X178730164Y-101949393D01*
G37*
G36*
X185270164Y-101949393D02*
G01*
X185438719Y-102019211D01*
X185590420Y-102120575D01*
X185719425Y-102249580D01*
X185820789Y-102401281D01*
X185890607Y-102569836D01*
X185926200Y-102748777D01*
X185926200Y-102931223D01*
X185890607Y-103110164D01*
X185820789Y-103278719D01*
X185719425Y-103430420D01*
X185590420Y-103559425D01*
X185438719Y-103660789D01*
X185270164Y-103730607D01*
X185091223Y-103766200D01*
X184908777Y-103766200D01*
X184729836Y-103730607D01*
X184561281Y-103660789D01*
X184409580Y-103559425D01*
X184280575Y-103430420D01*
X184179211Y-103278719D01*
X184109393Y-103110164D01*
X184073800Y-102931223D01*
X184073800Y-102748777D01*
X184109393Y-102569836D01*
X184179211Y-102401281D01*
X184280575Y-102249580D01*
X184409580Y-102120575D01*
X184561281Y-102019211D01*
X184729836Y-101949393D01*
X184908777Y-101913800D01*
X185091223Y-101913800D01*
X185270164Y-101949393D01*
G37*
G36*
X176190164Y-101949393D02*
G01*
X176358719Y-102019211D01*
X176510420Y-102120575D01*
X176639425Y-102249580D01*
X176740789Y-102401281D01*
X176810607Y-102569836D01*
X176846200Y-102748777D01*
X176846200Y-102931223D01*
X176810607Y-103110164D01*
X176740789Y-103278719D01*
X176639425Y-103430420D01*
X176510420Y-103559425D01*
X176358719Y-103660789D01*
X176190164Y-103730607D01*
X176011223Y-103766200D01*
X175828777Y-103766200D01*
X175649836Y-103730607D01*
X175481281Y-103660789D01*
X175329580Y-103559425D01*
X175200575Y-103430420D01*
X175099211Y-103278719D01*
X175029393Y-103110164D01*
X174993800Y-102931223D01*
X174993800Y-102748777D01*
X175029393Y-102569836D01*
X175099211Y-102401281D01*
X175200575Y-102249580D01*
X175329580Y-102120575D01*
X175481281Y-102019211D01*
X175649836Y-101949393D01*
X175828777Y-101913800D01*
X176011223Y-101913800D01*
X176190164Y-101949393D01*
G37*
G36*
X181270164Y-101949393D02*
G01*
X181438719Y-102019211D01*
X181590420Y-102120575D01*
X181719425Y-102249580D01*
X181820789Y-102401281D01*
X181890607Y-102569836D01*
X181926200Y-102748777D01*
X181926200Y-102931223D01*
X181890607Y-103110164D01*
X181820789Y-103278719D01*
X181719425Y-103430420D01*
X181590420Y-103559425D01*
X181438719Y-103660789D01*
X181270164Y-103730607D01*
X181091223Y-103766200D01*
X180908777Y-103766200D01*
X180729836Y-103730607D01*
X180561281Y-103660789D01*
X180409580Y-103559425D01*
X180280575Y-103430420D01*
X180179211Y-103278719D01*
X180109393Y-103110164D01*
X180073800Y-102931223D01*
X180073800Y-102748777D01*
X180109393Y-102569836D01*
X180179211Y-102401281D01*
X180280575Y-102249580D01*
X180409580Y-102120575D01*
X180561281Y-102019211D01*
X180729836Y-101949393D01*
X180908777Y-101913800D01*
X181091223Y-101913800D01*
X181270164Y-101949393D01*
G37*
G36*
X110070164Y-100989393D02*
G01*
X110238719Y-101059211D01*
X110390420Y-101160575D01*
X110519425Y-101289580D01*
X110620789Y-101441281D01*
X110690607Y-101609836D01*
X110726200Y-101788777D01*
X110726200Y-101971223D01*
X110690607Y-102150164D01*
X110620789Y-102318719D01*
X110519425Y-102470420D01*
X110390420Y-102599425D01*
X110238719Y-102700789D01*
X110070164Y-102770607D01*
X109891223Y-102806200D01*
X109708777Y-102806200D01*
X109529836Y-102770607D01*
X109361281Y-102700789D01*
X109209580Y-102599425D01*
X109080575Y-102470420D01*
X108979211Y-102318719D01*
X108909393Y-102150164D01*
X108873800Y-101971223D01*
X108873800Y-101788777D01*
X108909393Y-101609836D01*
X108979211Y-101441281D01*
X109080575Y-101289580D01*
X109209580Y-101160575D01*
X109361281Y-101059211D01*
X109529836Y-100989393D01*
X109708777Y-100953800D01*
X109891223Y-100953800D01*
X110070164Y-100989393D01*
G37*
G36*
X185270164Y-99409393D02*
G01*
X185438719Y-99479211D01*
X185590420Y-99580575D01*
X185719425Y-99709580D01*
X185820789Y-99861281D01*
X185890607Y-100029836D01*
X185926200Y-100208777D01*
X185926200Y-100391223D01*
X185890607Y-100570164D01*
X185820789Y-100738719D01*
X185719425Y-100890420D01*
X185590420Y-101019425D01*
X185438719Y-101120789D01*
X185270164Y-101190607D01*
X185091223Y-101226200D01*
X184908777Y-101226200D01*
X184729836Y-101190607D01*
X184561281Y-101120789D01*
X184409580Y-101019425D01*
X184280575Y-100890420D01*
X184179211Y-100738719D01*
X184109393Y-100570164D01*
X184073800Y-100391223D01*
X184073800Y-100208777D01*
X184109393Y-100029836D01*
X184179211Y-99861281D01*
X184280575Y-99709580D01*
X184409580Y-99580575D01*
X184561281Y-99479211D01*
X184729836Y-99409393D01*
X184908777Y-99373800D01*
X185091223Y-99373800D01*
X185270164Y-99409393D01*
G37*
G36*
X176846200Y-101226200D02*
G01*
X174993800Y-101226200D01*
X174993800Y-99373800D01*
X176846200Y-99373800D01*
X176846200Y-101226200D01*
G37*
G36*
X181926200Y-101226200D02*
G01*
X180073800Y-101226200D01*
X180073800Y-99373800D01*
X181926200Y-99373800D01*
X181926200Y-101226200D01*
G37*
G36*
X179386200Y-101226200D02*
G01*
X177533800Y-101226200D01*
X177533800Y-99373800D01*
X179386200Y-99373800D01*
X179386200Y-101226200D01*
G37*
G36*
X110726200Y-100266200D02*
G01*
X108873800Y-100266200D01*
X108873800Y-98413800D01*
X110726200Y-98413800D01*
X110726200Y-100266200D01*
G37*
G36*
X185270164Y-96869393D02*
G01*
X185438719Y-96939211D01*
X185590420Y-97040575D01*
X185719425Y-97169580D01*
X185820789Y-97321281D01*
X185890607Y-97489836D01*
X185926200Y-97668777D01*
X185926200Y-97851223D01*
X185890607Y-98030164D01*
X185820789Y-98198719D01*
X185719425Y-98350420D01*
X185590420Y-98479425D01*
X185438719Y-98580789D01*
X185270164Y-98650607D01*
X185091223Y-98686200D01*
X184908777Y-98686200D01*
X184729836Y-98650607D01*
X184561281Y-98580789D01*
X184409580Y-98479425D01*
X184280575Y-98350420D01*
X184179211Y-98198719D01*
X184109393Y-98030164D01*
X184073800Y-97851223D01*
X184073800Y-97668777D01*
X184109393Y-97489836D01*
X184179211Y-97321281D01*
X184280575Y-97169580D01*
X184409580Y-97040575D01*
X184561281Y-96939211D01*
X184729836Y-96869393D01*
X184908777Y-96833800D01*
X185091223Y-96833800D01*
X185270164Y-96869393D01*
G37*
G36*
X113770164Y-94779393D02*
G01*
X113938719Y-94849211D01*
X114090420Y-94950575D01*
X114219425Y-95079580D01*
X114320789Y-95231281D01*
X114390607Y-95399836D01*
X114426200Y-95578777D01*
X114426200Y-95761223D01*
X114390607Y-95940164D01*
X114320789Y-96108719D01*
X114219425Y-96260420D01*
X114090420Y-96389425D01*
X113938719Y-96490789D01*
X113770164Y-96560607D01*
X113591223Y-96596200D01*
X113408777Y-96596200D01*
X113229836Y-96560607D01*
X113061281Y-96490789D01*
X112909580Y-96389425D01*
X112780575Y-96260420D01*
X112679211Y-96108719D01*
X112609393Y-95940164D01*
X112573800Y-95761223D01*
X112573800Y-95578777D01*
X112609393Y-95399836D01*
X112679211Y-95231281D01*
X112780575Y-95079580D01*
X112909580Y-94950575D01*
X113061281Y-94849211D01*
X113229836Y-94779393D01*
X113408777Y-94743800D01*
X113591223Y-94743800D01*
X113770164Y-94779393D01*
G37*
G36*
X110070164Y-94779393D02*
G01*
X110238719Y-94849211D01*
X110390420Y-94950575D01*
X110519425Y-95079580D01*
X110620789Y-95231281D01*
X110690607Y-95399836D01*
X110726200Y-95578777D01*
X110726200Y-95761223D01*
X110690607Y-95940164D01*
X110620789Y-96108719D01*
X110519425Y-96260420D01*
X110390420Y-96389425D01*
X110238719Y-96490789D01*
X110070164Y-96560607D01*
X109891223Y-96596200D01*
X109708777Y-96596200D01*
X109529836Y-96560607D01*
X109361281Y-96490789D01*
X109209580Y-96389425D01*
X109080575Y-96260420D01*
X108979211Y-96108719D01*
X108909393Y-95940164D01*
X108873800Y-95761223D01*
X108873800Y-95578777D01*
X108909393Y-95399836D01*
X108979211Y-95231281D01*
X109080575Y-95079580D01*
X109209580Y-94950575D01*
X109361281Y-94849211D01*
X109529836Y-94779393D01*
X109708777Y-94743800D01*
X109891223Y-94743800D01*
X110070164Y-94779393D01*
G37*
G36*
X185270164Y-94329393D02*
G01*
X185438719Y-94399211D01*
X185590420Y-94500575D01*
X185719425Y-94629580D01*
X185820789Y-94781281D01*
X185890607Y-94949836D01*
X185926200Y-95128777D01*
X185926200Y-95311223D01*
X185890607Y-95490164D01*
X185820789Y-95658719D01*
X185719425Y-95810420D01*
X185590420Y-95939425D01*
X185438719Y-96040789D01*
X185270164Y-96110607D01*
X185091223Y-96146200D01*
X184908777Y-96146200D01*
X184729836Y-96110607D01*
X184561281Y-96040789D01*
X184409580Y-95939425D01*
X184280575Y-95810420D01*
X184179211Y-95658719D01*
X184109393Y-95490164D01*
X184073800Y-95311223D01*
X184073800Y-95128777D01*
X184109393Y-94949836D01*
X184179211Y-94781281D01*
X184280575Y-94629580D01*
X184409580Y-94500575D01*
X184561281Y-94399211D01*
X184729836Y-94329393D01*
X184908777Y-94293800D01*
X185091223Y-94293800D01*
X185270164Y-94329393D01*
G37*
G36*
X110070164Y-92239393D02*
G01*
X110238719Y-92309211D01*
X110390420Y-92410575D01*
X110519425Y-92539580D01*
X110620789Y-92691281D01*
X110690607Y-92859836D01*
X110726200Y-93038777D01*
X110726200Y-93221223D01*
X110690607Y-93400164D01*
X110620789Y-93568719D01*
X110519425Y-93720420D01*
X110390420Y-93849425D01*
X110238719Y-93950789D01*
X110070164Y-94020607D01*
X109891223Y-94056200D01*
X109708777Y-94056200D01*
X109529836Y-94020607D01*
X109361281Y-93950789D01*
X109209580Y-93849425D01*
X109080575Y-93720420D01*
X108979211Y-93568719D01*
X108909393Y-93400164D01*
X108873800Y-93221223D01*
X108873800Y-93038777D01*
X108909393Y-92859836D01*
X108979211Y-92691281D01*
X109080575Y-92539580D01*
X109209580Y-92410575D01*
X109361281Y-92309211D01*
X109529836Y-92239393D01*
X109708777Y-92203800D01*
X109891223Y-92203800D01*
X110070164Y-92239393D01*
G37*
G36*
X113770164Y-92239393D02*
G01*
X113938719Y-92309211D01*
X114090420Y-92410575D01*
X114219425Y-92539580D01*
X114320789Y-92691281D01*
X114390607Y-92859836D01*
X114426200Y-93038777D01*
X114426200Y-93221223D01*
X114390607Y-93400164D01*
X114320789Y-93568719D01*
X114219425Y-93720420D01*
X114090420Y-93849425D01*
X113938719Y-93950789D01*
X113770164Y-94020607D01*
X113591223Y-94056200D01*
X113408777Y-94056200D01*
X113229836Y-94020607D01*
X113061281Y-93950789D01*
X112909580Y-93849425D01*
X112780575Y-93720420D01*
X112679211Y-93568719D01*
X112609393Y-93400164D01*
X112573800Y-93221223D01*
X112573800Y-93038777D01*
X112609393Y-92859836D01*
X112679211Y-92691281D01*
X112780575Y-92539580D01*
X112909580Y-92410575D01*
X113061281Y-92309211D01*
X113229836Y-92239393D01*
X113408777Y-92203800D01*
X113591223Y-92203800D01*
X113770164Y-92239393D01*
G37*
G36*
X185270164Y-91789393D02*
G01*
X185438719Y-91859211D01*
X185590420Y-91960575D01*
X185719425Y-92089580D01*
X185820789Y-92241281D01*
X185890607Y-92409836D01*
X185926200Y-92588777D01*
X185926200Y-92771223D01*
X185890607Y-92950164D01*
X185820789Y-93118719D01*
X185719425Y-93270420D01*
X185590420Y-93399425D01*
X185438719Y-93500789D01*
X185270164Y-93570607D01*
X185091223Y-93606200D01*
X184908777Y-93606200D01*
X184729836Y-93570607D01*
X184561281Y-93500789D01*
X184409580Y-93399425D01*
X184280575Y-93270420D01*
X184179211Y-93118719D01*
X184109393Y-92950164D01*
X184073800Y-92771223D01*
X184073800Y-92588777D01*
X184109393Y-92409836D01*
X184179211Y-92241281D01*
X184280575Y-92089580D01*
X184409580Y-91960575D01*
X184561281Y-91859211D01*
X184729836Y-91789393D01*
X184908777Y-91753800D01*
X185091223Y-91753800D01*
X185270164Y-91789393D01*
G37*
G36*
X113770164Y-89699393D02*
G01*
X113938719Y-89769211D01*
X114090420Y-89870575D01*
X114219425Y-89999580D01*
X114320789Y-90151281D01*
X114390607Y-90319836D01*
X114426200Y-90498777D01*
X114426200Y-90681223D01*
X114390607Y-90860164D01*
X114320789Y-91028719D01*
X114219425Y-91180420D01*
X114090420Y-91309425D01*
X113938719Y-91410789D01*
X113770164Y-91480607D01*
X113591223Y-91516200D01*
X113408777Y-91516200D01*
X113229836Y-91480607D01*
X113061281Y-91410789D01*
X112909580Y-91309425D01*
X112780575Y-91180420D01*
X112679211Y-91028719D01*
X112609393Y-90860164D01*
X112573800Y-90681223D01*
X112573800Y-90498777D01*
X112609393Y-90319836D01*
X112679211Y-90151281D01*
X112780575Y-89999580D01*
X112909580Y-89870575D01*
X113061281Y-89769211D01*
X113229836Y-89699393D01*
X113408777Y-89663800D01*
X113591223Y-89663800D01*
X113770164Y-89699393D01*
G37*
G36*
X110070164Y-89699393D02*
G01*
X110238719Y-89769211D01*
X110390420Y-89870575D01*
X110519425Y-89999580D01*
X110620789Y-90151281D01*
X110690607Y-90319836D01*
X110726200Y-90498777D01*
X110726200Y-90681223D01*
X110690607Y-90860164D01*
X110620789Y-91028719D01*
X110519425Y-91180420D01*
X110390420Y-91309425D01*
X110238719Y-91410789D01*
X110070164Y-91480607D01*
X109891223Y-91516200D01*
X109708777Y-91516200D01*
X109529836Y-91480607D01*
X109361281Y-91410789D01*
X109209580Y-91309425D01*
X109080575Y-91180420D01*
X108979211Y-91028719D01*
X108909393Y-90860164D01*
X108873800Y-90681223D01*
X108873800Y-90498777D01*
X108909393Y-90319836D01*
X108979211Y-90151281D01*
X109080575Y-89999580D01*
X109209580Y-89870575D01*
X109361281Y-89769211D01*
X109529836Y-89699393D01*
X109708777Y-89663800D01*
X109891223Y-89663800D01*
X110070164Y-89699393D01*
G37*
G36*
X185926200Y-91066200D02*
G01*
X184073800Y-91066200D01*
X184073800Y-89213800D01*
X185926200Y-89213800D01*
X185926200Y-91066200D01*
G37*
G36*
X110726200Y-88976200D02*
G01*
X108873800Y-88976200D01*
X108873800Y-87123800D01*
X110726200Y-87123800D01*
X110726200Y-88976200D01*
G37*
G36*
X114426200Y-88976200D02*
G01*
X112573800Y-88976200D01*
X112573800Y-87123800D01*
X114426200Y-87123800D01*
X114426200Y-88976200D01*
G37*
G36*
X175889129Y-79146316D02*
G01*
X176060162Y-79217160D01*
X176214087Y-79320010D01*
X176344990Y-79450913D01*
X176447840Y-79604838D01*
X176518684Y-79775871D01*
X176554800Y-79957438D01*
X176554800Y-80142562D01*
X176518684Y-80324129D01*
X176447840Y-80495162D01*
X176344990Y-80649087D01*
X176214087Y-80779990D01*
X176060162Y-80882840D01*
X175889129Y-80953684D01*
X175707562Y-80989800D01*
X175522438Y-80989800D01*
X175340871Y-80953684D01*
X175169838Y-80882840D01*
X175015913Y-80779990D01*
X174885010Y-80649087D01*
X174782160Y-80495162D01*
X174711316Y-80324129D01*
X174675200Y-80142562D01*
X174675200Y-79957438D01*
X174711316Y-79775871D01*
X174782160Y-79604838D01*
X174885010Y-79450913D01*
X175015913Y-79320010D01*
X175169838Y-79217160D01*
X175340871Y-79146316D01*
X175522438Y-79110200D01*
X175707562Y-79110200D01*
X175889129Y-79146316D01*
G37*
G36*
X178429129Y-79146316D02*
G01*
X178600162Y-79217160D01*
X178754087Y-79320010D01*
X178884990Y-79450913D01*
X178987840Y-79604838D01*
X179058684Y-79775871D01*
X179094800Y-79957438D01*
X179094800Y-80142562D01*
X179058684Y-80324129D01*
X178987840Y-80495162D01*
X178884990Y-80649087D01*
X178754087Y-80779990D01*
X178600162Y-80882840D01*
X178429129Y-80953684D01*
X178247562Y-80989800D01*
X178062438Y-80989800D01*
X177880871Y-80953684D01*
X177709838Y-80882840D01*
X177555913Y-80779990D01*
X177425010Y-80649087D01*
X177322160Y-80495162D01*
X177251316Y-80324129D01*
X177215200Y-80142562D01*
X177215200Y-79957438D01*
X177251316Y-79775871D01*
X177322160Y-79604838D01*
X177425010Y-79450913D01*
X177555913Y-79320010D01*
X177709838Y-79217160D01*
X177880871Y-79146316D01*
X178062438Y-79110200D01*
X178247562Y-79110200D01*
X178429129Y-79146316D01*
G37*
G36*
X174014800Y-80989800D02*
G01*
X172135200Y-80989800D01*
X172135200Y-79110200D01*
X174014800Y-79110200D01*
X174014800Y-80989800D01*
G37*
G36*
X173349129Y-76606316D02*
G01*
X173520162Y-76677160D01*
X173674087Y-76780010D01*
X173804990Y-76910913D01*
X173907840Y-77064838D01*
X173978684Y-77235871D01*
X174014800Y-77417438D01*
X174014800Y-77602562D01*
X173978684Y-77784129D01*
X173907840Y-77955162D01*
X173804990Y-78109087D01*
X173674087Y-78239990D01*
X173520162Y-78342840D01*
X173349129Y-78413684D01*
X173167562Y-78449800D01*
X172982438Y-78449800D01*
X172800871Y-78413684D01*
X172629838Y-78342840D01*
X172475913Y-78239990D01*
X172345010Y-78109087D01*
X172242160Y-77955162D01*
X172171316Y-77784129D01*
X172135200Y-77602562D01*
X172135200Y-77417438D01*
X172171316Y-77235871D01*
X172242160Y-77064838D01*
X172345010Y-76910913D01*
X172475913Y-76780010D01*
X172629838Y-76677160D01*
X172800871Y-76606316D01*
X172982438Y-76570200D01*
X173167562Y-76570200D01*
X173349129Y-76606316D01*
G37*
G36*
X175889129Y-76606316D02*
G01*
X176060162Y-76677160D01*
X176214087Y-76780010D01*
X176344990Y-76910913D01*
X176447840Y-77064838D01*
X176518684Y-77235871D01*
X176554800Y-77417438D01*
X176554800Y-77602562D01*
X176518684Y-77784129D01*
X176447840Y-77955162D01*
X176344990Y-78109087D01*
X176214087Y-78239990D01*
X176060162Y-78342840D01*
X175889129Y-78413684D01*
X175707562Y-78449800D01*
X175522438Y-78449800D01*
X175340871Y-78413684D01*
X175169838Y-78342840D01*
X175015913Y-78239990D01*
X174885010Y-78109087D01*
X174782160Y-77955162D01*
X174711316Y-77784129D01*
X174675200Y-77602562D01*
X174675200Y-77417438D01*
X174711316Y-77235871D01*
X174782160Y-77064838D01*
X174885010Y-76910913D01*
X175015913Y-76780010D01*
X175169838Y-76677160D01*
X175340871Y-76606316D01*
X175522438Y-76570200D01*
X175707562Y-76570200D01*
X175889129Y-76606316D01*
G37*
G36*
X178429129Y-76606316D02*
G01*
X178600162Y-76677160D01*
X178754087Y-76780010D01*
X178884990Y-76910913D01*
X178987840Y-77064838D01*
X179058684Y-77235871D01*
X179094800Y-77417438D01*
X179094800Y-77602562D01*
X179058684Y-77784129D01*
X178987840Y-77955162D01*
X178884990Y-78109087D01*
X178754087Y-78239990D01*
X178600162Y-78342840D01*
X178429129Y-78413684D01*
X178247562Y-78449800D01*
X178062438Y-78449800D01*
X177880871Y-78413684D01*
X177709838Y-78342840D01*
X177555913Y-78239990D01*
X177425010Y-78109087D01*
X177322160Y-77955162D01*
X177251316Y-77784129D01*
X177215200Y-77602562D01*
X177215200Y-77417438D01*
X177251316Y-77235871D01*
X177322160Y-77064838D01*
X177425010Y-76910913D01*
X177555913Y-76780010D01*
X177709838Y-76677160D01*
X177880871Y-76606316D01*
X178062438Y-76570200D01*
X178247562Y-76570200D01*
X178429129Y-76606316D01*
G37*
G36*
X104271889Y-64632708D02*
G01*
X104475540Y-64673217D01*
X104859206Y-64832136D01*
X104859207Y-64832137D01*
X105204499Y-65062854D01*
X105498146Y-65356501D01*
X105601425Y-65511069D01*
X105728864Y-65701794D01*
X105887783Y-66085460D01*
X105968800Y-66492761D01*
X105968800Y-66908039D01*
X105887783Y-67315340D01*
X105728864Y-67699006D01*
X105728863Y-67699007D01*
X105498146Y-68044299D01*
X105204499Y-68337946D01*
X104974304Y-68491757D01*
X104859206Y-68568664D01*
X104475540Y-68727583D01*
X104271890Y-68768091D01*
X104068240Y-68808600D01*
X103652960Y-68808600D01*
X103449310Y-68768091D01*
X103245660Y-68727583D01*
X102861994Y-68568664D01*
X102746896Y-68491757D01*
X102516701Y-68337946D01*
X102223054Y-68044299D01*
X101992337Y-67699007D01*
X101992336Y-67699006D01*
X101833417Y-67315340D01*
X101752400Y-66908039D01*
X101752400Y-66492761D01*
X101833417Y-66085460D01*
X101992336Y-65701794D01*
X102119775Y-65511069D01*
X102223054Y-65356501D01*
X102516701Y-65062854D01*
X102861993Y-64832137D01*
X102861994Y-64832136D01*
X103245660Y-64673217D01*
X103449311Y-64632708D01*
X103652960Y-64592200D01*
X104068240Y-64592200D01*
X104271889Y-64632708D01*
G37*
G36*
X191038289Y-64632708D02*
G01*
X191241940Y-64673217D01*
X191625606Y-64832136D01*
X191625607Y-64832137D01*
X191970899Y-65062854D01*
X192264546Y-65356501D01*
X192367825Y-65511069D01*
X192495264Y-65701794D01*
X192654183Y-66085460D01*
X192735200Y-66492761D01*
X192735200Y-66908039D01*
X192654183Y-67315340D01*
X192495264Y-67699006D01*
X192495263Y-67699007D01*
X192264546Y-68044299D01*
X191970899Y-68337946D01*
X191740704Y-68491757D01*
X191625606Y-68568664D01*
X191241940Y-68727583D01*
X191038290Y-68768091D01*
X190834640Y-68808600D01*
X190419360Y-68808600D01*
X190215710Y-68768091D01*
X190012060Y-68727583D01*
X189628394Y-68568664D01*
X189513296Y-68491757D01*
X189283101Y-68337946D01*
X188989454Y-68044299D01*
X188758737Y-67699007D01*
X188758736Y-67699006D01*
X188599817Y-67315340D01*
X188518800Y-66908039D01*
X188518800Y-66492761D01*
X188599817Y-66085460D01*
X188758736Y-65701794D01*
X188886175Y-65511069D01*
X188989454Y-65356501D01*
X189283101Y-65062854D01*
X189628393Y-64832137D01*
X189628394Y-64832136D01*
X190012060Y-64673217D01*
X190215711Y-64632708D01*
X190419360Y-64592200D01*
X190834640Y-64592200D01*
X191038289Y-64632708D01*
G37*
G36*
X145176200Y-67676200D02*
G01*
X141823800Y-67676200D01*
X141823800Y-64323800D01*
X145176200Y-64323800D01*
X145176200Y-67676200D01*
G37*
G36*
X128748931Y-64388215D02*
G01*
X129053977Y-64514569D01*
X129328517Y-64698012D01*
X129561988Y-64931483D01*
X129745431Y-65206023D01*
X129871785Y-65511069D01*
X129936200Y-65834909D01*
X129936200Y-66165091D01*
X129871785Y-66488931D01*
X129745431Y-66793977D01*
X129561988Y-67068517D01*
X129328517Y-67301988D01*
X129053977Y-67485431D01*
X128748931Y-67611785D01*
X128425091Y-67676200D01*
X128094909Y-67676200D01*
X127771069Y-67611785D01*
X127466023Y-67485431D01*
X127191483Y-67301988D01*
X126958012Y-67068517D01*
X126774569Y-66793977D01*
X126648215Y-66488931D01*
X126583800Y-66165091D01*
X126583800Y-65834909D01*
X126648215Y-65511069D01*
X126774569Y-65206023D01*
X126958012Y-64931483D01*
X127191483Y-64698012D01*
X127466023Y-64514569D01*
X127771069Y-64388215D01*
X128094909Y-64323800D01*
X128425091Y-64323800D01*
X128748931Y-64388215D01*
G37*
G36*
X191407362Y-58328251D02*
G01*
X191446607Y-58340155D01*
X191482783Y-58359492D01*
X191514488Y-58385512D01*
X191540508Y-58417217D01*
X191559845Y-58453393D01*
X191571749Y-58492638D01*
X191576200Y-58537828D01*
X191576200Y-59962172D01*
X191571749Y-60007362D01*
X191559845Y-60046607D01*
X191540508Y-60082783D01*
X191514488Y-60114488D01*
X191482783Y-60140508D01*
X191446607Y-60159845D01*
X191407362Y-60171749D01*
X191362172Y-60176200D01*
X189637828Y-60176200D01*
X189592638Y-60171749D01*
X189553393Y-60159845D01*
X189517217Y-60140508D01*
X189485512Y-60114488D01*
X189459492Y-60082783D01*
X189440155Y-60046607D01*
X189428251Y-60007362D01*
X189423800Y-59962172D01*
X189423800Y-58537828D01*
X189428251Y-58492638D01*
X189440155Y-58453393D01*
X189459492Y-58417217D01*
X189485512Y-58385512D01*
X189517217Y-58359492D01*
X189553393Y-58340155D01*
X189592638Y-58328251D01*
X189637828Y-58323800D01*
X191362172Y-58323800D01*
X191407362Y-58328251D01*
G37*
G36*
X112126932Y-55390913D02*
G01*
X112289802Y-55440319D01*
X112439907Y-55520552D01*
X112571474Y-55628526D01*
X112679448Y-55760093D01*
X112759681Y-55910198D01*
X112809087Y-56073068D01*
X112826200Y-56246818D01*
X112826200Y-58153182D01*
X112809087Y-58326932D01*
X112759681Y-58489802D01*
X112679448Y-58639907D01*
X112571474Y-58771474D01*
X112439907Y-58879448D01*
X112289802Y-58959681D01*
X112126932Y-59009087D01*
X111953182Y-59026200D01*
X110046818Y-59026200D01*
X109873068Y-59009087D01*
X109710198Y-58959681D01*
X109560093Y-58879448D01*
X109428526Y-58771474D01*
X109320552Y-58639907D01*
X109240319Y-58489802D01*
X109190913Y-58326932D01*
X109173800Y-58153182D01*
X109173800Y-56246818D01*
X109190913Y-56073068D01*
X109240319Y-55910198D01*
X109320552Y-55760093D01*
X109428526Y-55628526D01*
X109560093Y-55520552D01*
X109710198Y-55440319D01*
X109873068Y-55390913D01*
X110046818Y-55373800D01*
X111953182Y-55373800D01*
X112126932Y-55390913D01*
G37*
G36*
X190831567Y-55837202D02*
G01*
X191006156Y-55890163D01*
X191167059Y-55976167D01*
X191308091Y-56091909D01*
X191423833Y-56232941D01*
X191509837Y-56393844D01*
X191562798Y-56568433D01*
X191580681Y-56750000D01*
X191562798Y-56931567D01*
X191509837Y-57106156D01*
X191423833Y-57267059D01*
X191308091Y-57408091D01*
X191167059Y-57523833D01*
X191006156Y-57609837D01*
X190831567Y-57662798D01*
X190695496Y-57676200D01*
X190304504Y-57676200D01*
X190168433Y-57662798D01*
X189993844Y-57609837D01*
X189832941Y-57523833D01*
X189691909Y-57408091D01*
X189576167Y-57267059D01*
X189490163Y-57106156D01*
X189437202Y-56931567D01*
X189419319Y-56750000D01*
X189437202Y-56568433D01*
X189490163Y-56393844D01*
X189576167Y-56232941D01*
X189691909Y-56091909D01*
X189832941Y-55976167D01*
X189993844Y-55890163D01*
X190168433Y-55837202D01*
X190304504Y-55823800D01*
X190695496Y-55823800D01*
X190831567Y-55837202D01*
G37*
G36*
X108977546Y-50688511D02*
G01*
X109116967Y-50730804D01*
X109245461Y-50799486D01*
X109358086Y-50891914D01*
X109450514Y-51004539D01*
X109519196Y-51133033D01*
X109561489Y-51272454D01*
X109576200Y-51421818D01*
X109576200Y-53578182D01*
X109561489Y-53727546D01*
X109519196Y-53866967D01*
X109450514Y-53995461D01*
X109358086Y-54108086D01*
X109245461Y-54200514D01*
X109116967Y-54269196D01*
X108977546Y-54311489D01*
X108828182Y-54326200D01*
X107171818Y-54326200D01*
X107022454Y-54311489D01*
X106883033Y-54269196D01*
X106754539Y-54200514D01*
X106641914Y-54108086D01*
X106549486Y-53995461D01*
X106480804Y-53866967D01*
X106438511Y-53727546D01*
X106423800Y-53578182D01*
X106423800Y-51421818D01*
X106438511Y-51272454D01*
X106480804Y-51133033D01*
X106549486Y-51004539D01*
X106641914Y-50891914D01*
X106754539Y-50799486D01*
X106883033Y-50730804D01*
X107022454Y-50688511D01*
X107171818Y-50673800D01*
X108828182Y-50673800D01*
X108977546Y-50688511D01*
G37*
G36*
X115826200Y-54326200D02*
G01*
X112173800Y-54326200D01*
X112173800Y-50673800D01*
X115826200Y-50673800D01*
X115826200Y-54326200D01*
G37*
G36*
X191407362Y-49328251D02*
G01*
X191446607Y-49340155D01*
X191482783Y-49359492D01*
X191514488Y-49385512D01*
X191540508Y-49417217D01*
X191559845Y-49453393D01*
X191571749Y-49492638D01*
X191576200Y-49537828D01*
X191576200Y-50962172D01*
X191571749Y-51007362D01*
X191559845Y-51046607D01*
X191540508Y-51082783D01*
X191514488Y-51114488D01*
X191482783Y-51140508D01*
X191446607Y-51159845D01*
X191407362Y-51171749D01*
X191362172Y-51176200D01*
X189637828Y-51176200D01*
X189592638Y-51171749D01*
X189553393Y-51159845D01*
X189517217Y-51140508D01*
X189485512Y-51114488D01*
X189459492Y-51082783D01*
X189440155Y-51046607D01*
X189428251Y-51007362D01*
X189423800Y-50962172D01*
X189423800Y-49537828D01*
X189428251Y-49492638D01*
X189440155Y-49453393D01*
X189459492Y-49417217D01*
X189485512Y-49385512D01*
X189517217Y-49359492D01*
X189553393Y-49340155D01*
X189592638Y-49328251D01*
X189637828Y-49323800D01*
X191362172Y-49323800D01*
X191407362Y-49328251D01*
G37*
G36*
X190831567Y-46837202D02*
G01*
X191006156Y-46890163D01*
X191167059Y-46976167D01*
X191308091Y-47091909D01*
X191423833Y-47232941D01*
X191509837Y-47393844D01*
X191562798Y-47568433D01*
X191580681Y-47750000D01*
X191562798Y-47931567D01*
X191509837Y-48106156D01*
X191423833Y-48267059D01*
X191308091Y-48408091D01*
X191167059Y-48523833D01*
X191006156Y-48609837D01*
X190831567Y-48662798D01*
X190695496Y-48676200D01*
X190304504Y-48676200D01*
X190168433Y-48662798D01*
X189993844Y-48609837D01*
X189832941Y-48523833D01*
X189691909Y-48408091D01*
X189576167Y-48267059D01*
X189490163Y-48106156D01*
X189437202Y-47931567D01*
X189419319Y-47750000D01*
X189437202Y-47568433D01*
X189490163Y-47393844D01*
X189576167Y-47232941D01*
X189691909Y-47091909D01*
X189832941Y-46976167D01*
X189993844Y-46890163D01*
X190168433Y-46837202D01*
X190304504Y-46823800D01*
X190695496Y-46823800D01*
X190831567Y-46837202D01*
G37*
M02*
