%TF.GenerationSoftware,KiCad,Pcbnew,(5.1.5)-3*%
%TF.CreationDate,2020-03-30T01:43:17+08:00*%
%TF.ProjectId,arduino_wifi,61726475-696e-46f5-9f77-6966692e6b69,REV_1.0*%
%TF.SameCoordinates,Original*%
%TF.FileFunction,Plated,1,2,PTH,Mixed*%
%TF.FilePolarity,Positive*%
%FSLAX46Y46*%
G04 Gerber Fmt 4.6, Leading zero omitted, Abs format (unit mm)*
G04 Created by KiCad (PCBNEW (5.1.5)-3) date 2020-03-30 01:43:17*
%MOMM*%
%LPD*%
G04 APERTURE LIST*
%TA.AperFunction,ViaDrill*%
%ADD10C,0.300000*%
%TD*%
%TA.AperFunction,ViaDrill*%
%ADD11C,0.635000*%
%TD*%
%TA.AperFunction,ComponentDrill*%
%ADD12C,0.750000*%
%TD*%
%TA.AperFunction,ComponentDrill*%
%ADD13C,0.800000*%
%TD*%
%TA.AperFunction,ComponentDrill*%
%ADD14C,1.000000*%
%TD*%
G04 aperture for slot hole*
%TA.AperFunction,ComponentDrill*%
%ADD15C,1.000000*%
%TD*%
%TA.AperFunction,ComponentDrill*%
%ADD16C,1.016000*%
%TD*%
%TA.AperFunction,ComponentDrill*%
%ADD17C,1.600000*%
%TD*%
%TA.AperFunction,ComponentDrill*%
%ADD18C,3.048000*%
%TD*%
G04 APERTURE END LIST*
D10*
X103479600Y-89154000D03*
X105918000Y-74066400D03*
X106850000Y-79850000D03*
X107451348Y-81351348D03*
X110337600Y-75184000D03*
X112064800Y-65989200D03*
X113538000Y-115417600D03*
X113538000Y-117805200D03*
X114046000Y-99568000D03*
X116382800Y-99568000D03*
X118008400Y-97129600D03*
X118059200Y-98653600D03*
X119425000Y-120025000D03*
X119825000Y-123600000D03*
X120200000Y-75200000D03*
X120300000Y-125475000D03*
X121250000Y-128200000D03*
X121361200Y-59639200D03*
X122000000Y-129875000D03*
X123525000Y-130750000D03*
X124375000Y-80000000D03*
X124510800Y-97332800D03*
X125272800Y-44958000D03*
X125550000Y-91925000D03*
X127355600Y-98399600D03*
X127406400Y-84988400D03*
X127914400Y-75285600D03*
X127950000Y-135700000D03*
X130175000Y-127950000D03*
X130200000Y-129875000D03*
X130275000Y-131775000D03*
X131216400Y-44805600D03*
X131470400Y-91490800D03*
X131475000Y-126975000D03*
X131775200Y-73863200D03*
X132200000Y-101150000D03*
X132600000Y-86450000D03*
X133807200Y-73914000D03*
X133807200Y-75234800D03*
X135900000Y-113900000D03*
X137600000Y-134350000D03*
X138968398Y-99838799D03*
X139550000Y-100275000D03*
X139852400Y-48615600D03*
X139903200Y-50139600D03*
X139954000Y-46990000D03*
X140004800Y-43180000D03*
X140525000Y-101225000D03*
X141150000Y-101800000D03*
X141675000Y-102374998D03*
X141833600Y-43180000D03*
X142189200Y-46888400D03*
X142240000Y-48666400D03*
X142325000Y-102875000D03*
X142425000Y-76325000D03*
X142443200Y-50393600D03*
X142494000Y-73660000D03*
X143050000Y-116300000D03*
X143679219Y-103875696D03*
X143967200Y-43180000D03*
X144225000Y-104424998D03*
X144424400Y-60756800D03*
X144450000Y-90250000D03*
X144875000Y-104850000D03*
X144983200Y-61620400D03*
X145132490Y-86725000D03*
X145132490Y-91600000D03*
X145948400Y-48056800D03*
X146100800Y-43180000D03*
X146149998Y-79075000D03*
X146150000Y-76975000D03*
X146250000Y-98925000D03*
X146417401Y-96560018D03*
X147074999Y-96250000D03*
X147725000Y-94800000D03*
X148082000Y-43078400D03*
X150800000Y-89775000D03*
X150800000Y-104125000D03*
X151028400Y-66243200D03*
X151282400Y-63500000D03*
X151434800Y-68834000D03*
X151475000Y-103550000D03*
X151525000Y-90425000D03*
X151900000Y-126425000D03*
X152038474Y-90984416D03*
X152524817Y-91524789D03*
X153000000Y-92075000D03*
X153568400Y-63398400D03*
X153625000Y-92650000D03*
X154076400Y-68783200D03*
X154127200Y-66192400D03*
X154175000Y-93350000D03*
X154718639Y-93927891D03*
X155050000Y-94600000D03*
X157429200Y-114858800D03*
X157886400Y-137312400D03*
X157937200Y-136347200D03*
X158394400Y-53695600D03*
X158546800Y-127152400D03*
X158546800Y-129438400D03*
X160629600Y-127101600D03*
X160629600Y-129387600D03*
X161036000Y-118770400D03*
X161188400Y-61214000D03*
X163830000Y-49936400D03*
X166166800Y-135686800D03*
X166217600Y-137668000D03*
X167132000Y-61264800D03*
X167843200Y-135686800D03*
X167843200Y-137769600D03*
X169621200Y-134010400D03*
X172008800Y-92710000D03*
X173050000Y-131625000D03*
X173150000Y-129825000D03*
X173250000Y-128600000D03*
X173300000Y-126025000D03*
X173325000Y-123550000D03*
X173400000Y-120925000D03*
X173450000Y-118325000D03*
X173475000Y-115250000D03*
X173500000Y-104225000D03*
X173500000Y-111425000D03*
X173525000Y-106725000D03*
X173550000Y-98475000D03*
X173575000Y-109250000D03*
X173625000Y-101575000D03*
X178104800Y-91033600D03*
X179850000Y-51050000D03*
X180050000Y-44600000D03*
X180746400Y-93116400D03*
X180797200Y-60858400D03*
X180949600Y-65481200D03*
X181000400Y-90678000D03*
X181203600Y-96164400D03*
X183692800Y-138023600D03*
X188874400Y-137922000D03*
X191160400Y-75793600D03*
X191211200Y-79603600D03*
X191363600Y-102057200D03*
X191566800Y-94538800D03*
X192024000Y-126593600D03*
X192074800Y-130606800D03*
X192125600Y-136652000D03*
D11*
X135050000Y-61075000D03*
X169000002Y-69800000D03*
X178449998Y-95975000D03*
D12*
%TO.C,Q3*%
X132250000Y-130750000D03*
X133520000Y-130750000D03*
X134790000Y-130750000D03*
%TO.C,Q2*%
X132710000Y-137250000D03*
X133980000Y-137250000D03*
X135250000Y-137250000D03*
D13*
%TO.C,D5*%
X136750000Y-116250000D03*
X142138154Y-110861846D03*
D14*
%TO.C,J16*%
X178460000Y-100300000D03*
X178460000Y-102840000D03*
X178460000Y-105380000D03*
X178460000Y-107920000D03*
X178460000Y-110460000D03*
X178460000Y-113000000D03*
%TO.C,J18*%
X118880000Y-122140000D03*
X118880000Y-124680000D03*
X118880000Y-127220000D03*
X118880000Y-129760000D03*
X118880000Y-132300000D03*
X118880000Y-134840000D03*
%TO.C,J15*%
X181000000Y-100300000D03*
X181000000Y-102840000D03*
X181000000Y-105380000D03*
X181000000Y-107920000D03*
X181000000Y-110460000D03*
X181000000Y-113000000D03*
%TO.C,J11*%
X116340000Y-122140000D03*
X116340000Y-124680000D03*
X116340000Y-127220000D03*
X116340000Y-129760000D03*
X116340000Y-132300000D03*
X116340000Y-134840000D03*
%TO.C,J17*%
X188800000Y-127210000D03*
X188800000Y-129750000D03*
X188800000Y-132290000D03*
X188800000Y-134830000D03*
%TO.C,J5*%
X190500000Y-56750000D03*
X190500000Y-59250000D03*
%TO.C,J6*%
X128575000Y-128870000D03*
X128575000Y-131410000D03*
X128575000Y-133950000D03*
%TO.C,J20*%
X113500000Y-88050000D03*
X113500000Y-90590000D03*
X113500000Y-93130000D03*
X113500000Y-95670000D03*
%TO.C,J14*%
X175920000Y-100300000D03*
X175920000Y-102840000D03*
X175920000Y-105380000D03*
X175920000Y-107920000D03*
X175920000Y-110460000D03*
X175920000Y-113000000D03*
%TO.C,J9*%
X185000000Y-90140000D03*
X185000000Y-92680000D03*
X185000000Y-95220000D03*
X185000000Y-97760000D03*
X185000000Y-100300000D03*
X185000000Y-102840000D03*
X185000000Y-105380000D03*
X185000000Y-107920000D03*
X185000000Y-110460000D03*
X185000000Y-113000000D03*
%TO.C,J21*%
X181000000Y-117060000D03*
X181000000Y-119600000D03*
X181000000Y-122140000D03*
X181000000Y-124680000D03*
X181000000Y-127220000D03*
X181000000Y-129760000D03*
X181000000Y-132300000D03*
X181000000Y-134840000D03*
%TO.C,J22*%
X109800000Y-122140000D03*
X109800000Y-124680000D03*
X109800000Y-127220000D03*
X109800000Y-129760000D03*
X109800000Y-132300000D03*
X109800000Y-134840000D03*
%TO.C,J4*%
X190500000Y-47750000D03*
X190500000Y-50250000D03*
%TO.C,J8*%
X113800000Y-122140000D03*
X113800000Y-124680000D03*
X113800000Y-127220000D03*
X113800000Y-129760000D03*
X113800000Y-132300000D03*
X113800000Y-134840000D03*
%TO.C,J10*%
X175920000Y-117060000D03*
X175920000Y-119600000D03*
X175920000Y-122140000D03*
X175920000Y-124680000D03*
X175920000Y-127220000D03*
X175920000Y-129760000D03*
X175920000Y-132300000D03*
X175920000Y-134840000D03*
%TO.C,J7*%
X178460000Y-117060000D03*
X178460000Y-119600000D03*
X178460000Y-122140000D03*
X178460000Y-124680000D03*
X178460000Y-127220000D03*
X178460000Y-129760000D03*
X178460000Y-132300000D03*
X178460000Y-134840000D03*
%TO.C,J19*%
X109800000Y-99340000D03*
X109800000Y-101880000D03*
X109800000Y-104420000D03*
X109800000Y-106960000D03*
X109800000Y-109500000D03*
X109800000Y-112040000D03*
X109800000Y-114580000D03*
X109800000Y-117120000D03*
D15*
%TO.C,J1*%
X108000000Y-53500000D02*
X108000000Y-51500000D01*
X112000000Y-57200000D02*
X110000000Y-57200000D01*
X114000000Y-53500000D02*
X114000000Y-51500000D01*
D14*
%TO.C,J12*%
X185000000Y-117060000D03*
X185000000Y-119600000D03*
X185000000Y-122140000D03*
X185000000Y-124680000D03*
X185000000Y-127220000D03*
X185000000Y-129760000D03*
X185000000Y-132300000D03*
X185000000Y-134840000D03*
%TO.C,J13*%
X109800000Y-88050000D03*
X109800000Y-90590000D03*
X109800000Y-93130000D03*
X109800000Y-95670000D03*
D16*
%TO.C,J2*%
X173075000Y-77510000D03*
X173075000Y-80050000D03*
X175615000Y-77510000D03*
X175615000Y-80050000D03*
X178155000Y-77510000D03*
X178155000Y-80050000D03*
D17*
%TO.C,D2*%
X128260000Y-66000000D03*
X143500000Y-66000000D03*
D18*
%TO.C,P7*%
X103860600Y-66700400D03*
X103860600Y-119253000D03*
X190627000Y-119253000D03*
X190627000Y-66700400D03*
M02*
