%FSLAX45Y45*%
G04 Gerber Fmt 4.5, Leading zero omitted, Abs format (unit mm)*
G04 Created by KiCad (PCBNEW (5.1.5)-3) date 2020-03-30 01:43:17*
%MOMM*%
%LPD*%
G04 APERTURE LIST*
%TA.AperFunction,Profile*%
%ADD10C,0.050000*%
%TD*%
%ADD11C,0.200000*%
%ADD12C,0.300000*%
G04 APERTURE END LIST*
D10*
X19466980Y-13600000D02*
G75*
G02X19066980Y-14000000I-400000J0D01*
G01*
X19066980Y-4000000D02*
G75*
G02X19466980Y-4400000I0J-400000D01*
G01*
X10400000Y-14000000D02*
G75*
G02X10000000Y-13600000I0J400000D01*
G01*
X10000000Y-4400000D02*
G75*
G02X10400000Y-4000000I400000J0D01*
G01*
X19466980Y-4400000D02*
X19466980Y-13600000D01*
X10400000Y-4000000D02*
X19066980Y-4000000D01*
X10000000Y-13600000D02*
X10000000Y-4400000D01*
X19066980Y-14000000D02*
X10400000Y-14000000D01*
D11*
D12*
X10283928Y-14468214D02*
X10283928Y-14168214D01*
X10355357Y-14168214D01*
X10398214Y-14182500D01*
X10426786Y-14211071D01*
X10441071Y-14239643D01*
X10455357Y-14296786D01*
X10455357Y-14339643D01*
X10441071Y-14396786D01*
X10426786Y-14425357D01*
X10398214Y-14453929D01*
X10355357Y-14468214D01*
X10283928Y-14468214D01*
X10583928Y-14468214D02*
X10583928Y-14268214D01*
X10583928Y-14325357D02*
X10598214Y-14296786D01*
X10612500Y-14282500D01*
X10641071Y-14268214D01*
X10669643Y-14268214D01*
X10769643Y-14468214D02*
X10769643Y-14268214D01*
X10769643Y-14168214D02*
X10755357Y-14182500D01*
X10769643Y-14196786D01*
X10783928Y-14182500D01*
X10769643Y-14168214D01*
X10769643Y-14196786D01*
X10955357Y-14468214D02*
X10926786Y-14453929D01*
X10912500Y-14425357D01*
X10912500Y-14168214D01*
X11112500Y-14468214D02*
X11083928Y-14453929D01*
X11069643Y-14425357D01*
X11069643Y-14168214D01*
X11455357Y-14468214D02*
X11455357Y-14168214D01*
X11555357Y-14382500D01*
X11655357Y-14168214D01*
X11655357Y-14468214D01*
X11926786Y-14468214D02*
X11926786Y-14311071D01*
X11912500Y-14282500D01*
X11883928Y-14268214D01*
X11826786Y-14268214D01*
X11798214Y-14282500D01*
X11926786Y-14453929D02*
X11898214Y-14468214D01*
X11826786Y-14468214D01*
X11798214Y-14453929D01*
X11783928Y-14425357D01*
X11783928Y-14396786D01*
X11798214Y-14368214D01*
X11826786Y-14353929D01*
X11898214Y-14353929D01*
X11926786Y-14339643D01*
X12069643Y-14268214D02*
X12069643Y-14568214D01*
X12069643Y-14282500D02*
X12098214Y-14268214D01*
X12155357Y-14268214D01*
X12183928Y-14282500D01*
X12198214Y-14296786D01*
X12212500Y-14325357D01*
X12212500Y-14411071D01*
X12198214Y-14439643D01*
X12183928Y-14453929D01*
X12155357Y-14468214D01*
X12098214Y-14468214D01*
X12069643Y-14453929D01*
X12341071Y-14439643D02*
X12355357Y-14453929D01*
X12341071Y-14468214D01*
X12326786Y-14453929D01*
X12341071Y-14439643D01*
X12341071Y-14468214D01*
X12341071Y-14282500D02*
X12355357Y-14296786D01*
X12341071Y-14311071D01*
X12326786Y-14296786D01*
X12341071Y-14282500D01*
X12341071Y-14311071D01*
M02*
